<?xml version="1.0" encoding="UTF-8" standalone="no"?>
<!-- Created with Inkscape (http://www.inkscape.org/) -->

<svg
   width="69.294144mm"
   height="137.56989mm"
   viewBox="0 0 69.294144 137.56989"
   version="1.1"
   id="svg1"
   xml:space="preserve"
   inkscape:version="1.3.2 (091e20e, 2023-11-25)"
   sodipodi:docname="player.svg"
   xmlns:inkscape="http://www.inkscape.org/namespaces/inkscape"
   xmlns:sodipodi="http://sodipodi.sourceforge.net/DTD/sodipodi-0.dtd"
   xmlns:xlink="http://www.w3.org/1999/xlink"
   xmlns="http://www.w3.org/2000/svg"
   xmlns:svg="http://www.w3.org/2000/svg"><sodipodi:namedview
     id="namedview1"
     pagecolor="#ffffff"
     bordercolor="#000000"
     borderopacity="0.25"
     inkscape:showpageshadow="2"
     inkscape:pageopacity="0.0"
     inkscape:pagecheckerboard="0"
     inkscape:deskcolor="#d1d1d1"
     inkscape:document-units="mm"
     inkscape:zoom="0.45254834"
     inkscape:cx="388.90873"
     inkscape:cy="429.78834"
     inkscape:window-width="1608"
     inkscape:window-height="956"
     inkscape:window-x="0"
     inkscape:window-y="38"
     inkscape:window-maximized="0"
     inkscape:current-layer="g43" /><defs
     id="defs1"><linearGradient
       inkscape:collect="always"
       xlink:href="#linearGradient19"
       id="linearGradient20"
       x1="75.378044"
       y1="364.23734"
       x2="102.25779"
       y2="364.23734"
       gradientUnits="userSpaceOnUse"
       gradientTransform="matrix(1.0967499,0,0,1.1839012,9.8330113,-351.30273)" /><linearGradient
       id="linearGradient19"
       inkscape:collect="always"><stop
         style="stop-color:#2c7ea0;stop-opacity:1;"
         offset="0"
         id="stop19" /><stop
         style="stop-color:#d6e8f0;stop-opacity:1;"
         offset="0.62836623"
         id="stop21" /><stop
         style="stop-color:#2c64a0;stop-opacity:1;"
         offset="1"
         id="stop20" /></linearGradient></defs><g
     inkscape:label="player_90"
     inkscape:groupmode="layer"
     id="g24"
     style="display:inline;opacity:1"
     transform="translate(-69.781349,-59.148306)"><path
       style="font-variation-settings:normal;opacity:1;vector-effect:none;fill:#666666;fill-opacity:1;stroke:none;stroke-width:1.31782;stroke-linecap:square;stroke-linejoin:miter;stroke-miterlimit:4;stroke-dasharray:none;stroke-dashoffset:0;stroke-opacity:1;-inkscape-stroke:none;stop-color:#000000;stop-opacity:1"
       d="m 109.22644,187.24325 1.12117,9.47494 28.72788,-1.33832 -5.06672,-22.10268 -14.58467,2.21297 2.368,11.08767 z"
       id="path11"
       sodipodi:nodetypes="ccccccc" /><path
       style="font-variation-settings:normal;vector-effect:none;fill:#666666;fill-opacity:1;stroke:none;stroke-width:1.29966;stroke-linecap:square;stroke-linejoin:miter;stroke-miterlimit:4;stroke-dasharray:none;stroke-dashoffset:0;stroke-opacity:1;-inkscape-stroke:none;stop-color:#000000"
       d="m 88.174278,186.67598 0.921877,9.50208 29.544885,0.42745 -4.03012,-20.86452 -13.73381,1.44567 v 9.39682 z"
       id="path12"
       sodipodi:nodetypes="ccccccc" /><path
       id="path13"
       style="font-variation-settings:normal;opacity:1;vector-effect:none;fill:#ff0000;fill-opacity:1;stroke:none;stroke-width:1.6;stroke-linecap:square;stroke-linejoin:miter;stroke-miterlimit:4;stroke-dasharray:none;stroke-dashoffset:0;stroke-opacity:1;-inkscape-stroke:none"
       d="m 97.441597,138.37553 -4.004406,4.89428 0.08578,0.0806 0.476456,19.15026 4.288611,18.11261 7.006822,1.81126 10.23349,-3.11454 -2.28413,-15.46054 -0.5374,-7.81145 -2.73627,-3.18998 4.30157,12.57444 3.70777,15.22236 9.48728,0.66557 8.75503,-3.3352 -3.1891,-6.5813 -2.71186,-11.04089 2.45874,-10.50376 -2.66598,-9.50174 -4.19662,-1.52705 -15.15725,1.55751 z"
       sodipodi:nodetypes="ccccccccccccccccccccc" /><path
       style="font-variation-settings:normal;opacity:1;vector-effect:none;fill:#ff6600;fill-opacity:1;stroke:none;stroke-width:13.2;stroke-linecap:square;stroke-linejoin:miter;stroke-miterlimit:4;stroke-dasharray:none;stroke-dashoffset:0;stroke-opacity:1;-inkscape-stroke:none;stop-color:#000000;stop-opacity:1"
       d="m 95.443926,140.01971 16.360174,2.51695 18.24788,-2.51695 -4.97917,-24.1542 4.40466,-11.95551 -7.30766,-7.587337 -11.62418,-2.86652 -13.213992,-0.629237 -1.124731,2.650694 -0.918022,12.62123 -5.508095,6.75139 z"
       id="path14"
       sodipodi:nodetypes="cccccccccccc" /><path
       style="font-variation-settings:normal;opacity:1;vector-effect:none;fill:#ff6600;fill-opacity:1;stroke:none;stroke-width:13.2;stroke-linecap:square;stroke-linejoin:miter;stroke-miterlimit:4;stroke-dasharray:none;stroke-dashoffset:0;stroke-opacity:1;-inkscape-stroke:none"
       d="m 106.02369,90.307971 -14.6163,25.140039 -13.789478,7.77781 5.26187,9.93908 13.789477,-8.36246 13.447001,-11.10839 z"
       id="path23"
       sodipodi:nodetypes="ccccccc" /><ellipse
       style="font-variation-settings:normal;opacity:1;vector-effect:none;fill:#4d4d4d;fill-opacity:1;stroke:none;stroke-width:13.2;stroke-linecap:square;stroke-linejoin:miter;stroke-miterlimit:4;stroke-dasharray:none;stroke-dashoffset:0;stroke-opacity:1;-inkscape-stroke:none"
       id="ellipse23"
       cx="78.258804"
       cy="128.33113"
       rx="8.4774551"
       ry="6.7234988" /><path
       style="fill:#f1dcb1;fill-opacity:1;stroke:none;stroke-width:1.64548;stroke-linecap:square;stroke-dasharray:none"
       d="m 95.398828,81.96559 c 0,0 -0.12202,10.375458 4.464066,12.377668 6.092786,2.66002 10.347506,2.303591 12.472216,-0.555299 2.81074,-3.78198 4.02059,-14.523528 4.02059,-14.523528 L 95.634123,77.96114 Z"
       id="path16"
       inkscape:label="face"
       sodipodi:nodetypes="cssccc" /><path
       id="path15"
       style="opacity:1;vector-effect:none;fill:#008080;stroke-width:13.2;stroke-linecap:square"
       d="m 122.30609,82.446798 c -12.76668,20.900892 -4.78117,-1.59364 -13.81664,-1.593642 -9.035475,0 -17.250046,5.155925 -17.250047,-4.400824 0,-9.556749 7.324696,-17.304025 16.360167,-17.304026 4.17839,0 9.94286,1.998111 13.10685,6.286256 3.67792,4.984668 4.27759,12.628104 1.59967,17.012236 z"
       sodipodi:nodetypes="ssssss" /><path
       style="fill:url(#linearGradient20);stroke:#666666;stroke-width:1.82319;stroke-linecap:square;stroke-dasharray:none"
       d="m 92.416633,74.189684 h 22.025217 l 0.24399,6.979618 c 0,0 -3.18124,3.582269 -5.24583,3.819028 -6.96826,0.799093 -12.470952,-3.912392 -13.690902,-3.912392 -1.21997,0 -0.421196,3.458486 -1.519166,3.458486 -1.097963,0 -0.959336,-1.653165 -1.325321,-2.970054 -0.365997,-1.316901 -0.487988,-7.374686 -0.487988,-7.374686 z"
       id="path17"
       inkscape:label="goggles"
       sodipodi:nodetypes="cccssssc" /><g
       id="g18"
       inkscape:label="jacket_big_stripe"
       transform="matrix(1.1122449,0,0,1,-10.533556,0)"
       style="display:none"><path
         style="font-variation-settings:normal;opacity:1;vector-effect:none;fill:#28a8ff;fill-opacity:1;stroke:none;stroke-width:1.1;stroke-linecap:square;stroke-linejoin:miter;stroke-miterlimit:4;stroke-dasharray:none;stroke-dashoffset:0;stroke-opacity:1;-inkscape-stroke:none;stop-color:#000000;stop-opacity:1"
         d="m 93.8444,114.92839 c 0,-4.75424 0.413411,-19.430344 0.413411,-19.430344 l 19.016929,21.910804 0.82682,21.29069 z"
         id="path18"
         sodipodi:nodetypes="ccccc" /></g><g
       id="g20"
       inkscape:label="jacket_trim_stripe"
       style="display:none"><path
         style="font-variation-settings:normal;display:inline;opacity:1;vector-effect:none;fill:#ff6600;fill-opacity:1;stroke:none;stroke-width:13.2;stroke-linecap:square;stroke-linejoin:miter;stroke-miterlimit:4;stroke-dasharray:none;stroke-dashoffset:0;stroke-opacity:1;-inkscape-stroke:none;stop-color:#000000;stop-opacity:1"
         d="m 117.9457,94.235379 21.63212,14.616291 1.75396,9.35443 -12.86235,16.37026 -9.93908,-8.76978 9.93908,-10.52373 -12.27769,-11.1084 z"
         id="path22" /><path
         style="font-variation-settings:normal;opacity:1;fill:none;fill-opacity:1;stroke:#ffff00;stroke-width:4.6;stroke-linecap:square;stroke-linejoin:miter;stroke-miterlimit:4;stroke-dasharray:none;stroke-dashoffset:0;stroke-opacity:1"
         d="m 96.324869,96.73828 18.396801,20.87728"
         id="path20"
         sodipodi:nodetypes="cc" /><path
         style="font-variation-settings:normal;opacity:1;vector-effect:none;fill:none;fill-opacity:1;stroke:#ffff00;stroke-width:4.59999;stroke-linecap:square;stroke-linejoin:miter;stroke-miterlimit:4;stroke-dasharray:none;stroke-dashoffset:0;stroke-opacity:1;-inkscape-stroke:none"
         d="m 114.10156,95.911457 6.14814,1.466577 16.47934,16.815586 -9.81172,13.55052"
         id="path28"
         sodipodi:nodetypes="cccc" /></g><path
       id="ellipse24"
       style="font-variation-settings:normal;display:inline;opacity:1;vector-effect:none;fill:#4d4d4d;fill-opacity:1;stroke:none;stroke-width:13.2;stroke-linecap:square;stroke-linejoin:miter;stroke-miterlimit:4;stroke-dasharray:none;stroke-dashoffset:0;stroke-opacity:1;-inkscape-stroke:none"
       d="m 119.66866,126.81138 a 8.4774551,6.7234988 0 0 0 -6.76961,6.56859 8.4774551,6.7234988 0 0 0 8.47752,6.72311 8.4774551,6.7234988 0 0 0 8.477,-6.72311 8.4774551,6.7234988 0 0 0 -0.0284,-0.52916 l -1.35547,1.72547 z" /></g></svg>
