<?xml version="1.0" encoding="UTF-8" standalone="no"?>
<!-- Created with Inkscape (http://www.inkscape.org/) -->

<svg
   width="210mm"
   height="297mm"
   viewBox="0 0 210 297"
   version="1.1"
   id="svg1"
   inkscape:version="1.3.2 (091e20e, 2023-11-25)"
   sodipodi:docname="big_tree_1.svg"
   xmlns:inkscape="http://www.inkscape.org/namespaces/inkscape"
   xmlns:sodipodi="http://sodipodi.sourceforge.net/DTD/sodipodi-0.dtd"
   xmlns="http://www.w3.org/2000/svg"
   xmlns:svg="http://www.w3.org/2000/svg">
  <sodipodi:namedview
     id="namedview1"
     pagecolor="#ffffff"
     bordercolor="#000000"
     borderopacity="0.25"
     inkscape:showpageshadow="2"
     inkscape:pageopacity="0.0"
     inkscape:pagecheckerboard="0"
     inkscape:deskcolor="#d1d1d1"
     inkscape:document-units="mm"
     inkscape:zoom="0.2102413"
     inkscape:cx="397.16269"
     inkscape:cy="561.25984"
     inkscape:window-width="1472"
     inkscape:window-height="697"
     inkscape:window-x="0"
     inkscape:window-y="38"
     inkscape:window-maximized="0"
     inkscape:current-layer="g104" />
  <defs
     id="defs1" />
  <g
     inkscape:label="Layer 1"
     inkscape:groupmode="layer"
     id="layer1">
    <g
       id="g104"
       inkscape:label="tree"
       transform="translate(-142.78242,-298.76422)">
      <path
         style="fill:#476747;fill-opacity:1;stroke:none;stroke-width:0.799999;stroke-linecap:square"
         d="m 226.84004,303.60699 v 6.29237 l -2.51695,-0.31461 4.40466,14.78706 -6.29237,3.77544 3.14618,7.23622 h -5.97775 l 5.97775,14.47245 2.51695,7.23625 -4.09004,2.20231 -16.36017,-9.75318 8.18009,12.58475 10.38241,8.80933 0.62924,5.66314 -5.34852,-7.55087 -0.94385,5.66315 3.77542,6.9216 -17.61864,-8.18007 v 6.29238 l 16.04555,9.75317 -7.23623,4.40465 -14.47246,-9.12394 0.94386,7.23625 14.15784,11.95549 1.25847,7.55086 -19.82097,-5.97776 5.66313,11.64088 4.71928,3.77544 4.09004,-3.4608 v 4.71927 l 8.80933,4.09003 -16.04555,2.83157 -8.18009,0.94385 2.51695,4.71929 5.97775,0.31462 7.23623,10.06779 -17.93326,-5.3485 7.55085,10.69703 9.75317,5.03388 -22.33792,2.51695 10.69704,10.0678 4.71928,6.29237 -5.66314,0.31462 -8.4947,9.7532 9.43856,1.25846 -12.89937,10.38241 9.75318,8.49471 0.31462,23.28178 -11.32627,10.38241 h 13.21398 l -0.31462,11.01166 6.92161,11.32626 -1.57309,11.95551 -10.69704,8.1801 9.75318,8.8093 5.0339,-3.4608 -17.93326,26.11334 3.4608,16.98943 2.51695,7.23622 32.40572,12.27013 79.59851,-5.66314 -24.85486,-28.6303 4.40466,-24.54026 6.60699,2.83157 4.09003,-6.60699 -3.14619,-5.97776 6.60699,-2.20231 -5.03388,-7.55086 -2.20234,-8.49469 13.21398,-7.86548 -4.40465,-8.49469 -7.55084,-6.60699 12.89937,-9.43856 -3.46081,-7.55086 1.25847,-3.77542 -15.41632,-0.31462 9.12394,-5.03391 1.88773,-4.71926 -8.1801,-2.20234 6.60699,-10.69703 v -8.80932 l -11.95552,3.77541 5.34853,-9.75317 -16.9894,-0.62923 10.69703,-10.38241 1.88772,-8.49471 0.94385,-10.69703 -16.67479,2.20231 5.3485,-8.8093 v -9.75318 l -14.78706,5.66312 3.14619,-13.21398 -5.97776,-1.25846 4.09004,-3.77542 0.94385,-8.80933 3.46083,-12.58475 -8.80934,4.71929 4.71927,-8.18009 3.14619,-8.1801 -10.06779,5.97776 0.94386,-10.69703 0.31462,-6.60698 5.03389,-5.97776 v -8.1801 l -12.27012,15.41632 -7.23623,2.83157 v -6.92161 l 6.60699,-3.14618 -7.55085,-12.27013 2.51695,-5.03389 4.71928,-9.12394 -12.27013,10.38241 -2.20233,-4.71927 9.12394,-2.83157 2.20233,-4.71929 -13.21398,4.40467 v -3.46083 l 4.71928,-2.83154 -4.40466,-4.40468 -0.31462,-5.97776 -2.51695,-0.94384 1.25848,-12.89937 -2.83157,-4.71926 -2.51695,-2.20234 z"
         id="path20" />
      <path
         style="fill:none;fill-opacity:1;stroke:#ffffff;stroke-width:1.7;stroke-linecap:square;stroke-dasharray:none;stroke-opacity:0.424116"
         d="m 249.61019,475.19372 7.11901,8.45384 h 10.23358 l 19.57726,-1.33482"
         id="path41" />
      <path
         style="fill:none;fill-opacity:1;stroke:#ffffff;stroke-width:1.7;stroke-linecap:square;stroke-dasharray:none;stroke-opacity:0.424116"
         d="m 248.72031,496.55076 -14.23801,15.12789 -40.48936,21.35701"
         id="path44" />
      <path
         style="fill:none;fill-opacity:1;stroke:#ffffff;stroke-width:1.7;stroke-linecap:square;stroke-dasharray:none;stroke-opacity:0.424116"
         d="m 249.61019,508.56409 -0.88988,22.69183 -16.01776,17.35256 -13.79308,20.02221 -10.67851,8.89876"
         id="path45" />
      <path
         style="fill:none;fill-opacity:1;stroke:#ffffff;stroke-width:1.7;stroke-linecap:square;stroke-dasharray:none;stroke-opacity:0.424116"
         d="m 238.93168,543.71417 4.89432,9.78863 -6.67407,15.57284 -4.44938,13.79308"
         id="path46" />
      <path
         style="fill:none;fill-opacity:1;stroke:#ffffff;stroke-width:1.7;stroke-linecap:square;stroke-dasharray:none;stroke-opacity:0.424116"
         d="m 264.29314,510.78875 4.44939,4.4494 16.46269,4.00444 15.57284,-0.44495"
         id="path47" />
      <path
         style="fill:none;fill-opacity:1;stroke:#ffffff;stroke-width:1.7;stroke-linecap:square;stroke-dasharray:none;stroke-opacity:0.424116"
         d="m 280.3109,493.43619 15.57282,-4.44939"
         id="path48" />
      <path
         style="fill:none;fill-opacity:1;stroke:#ffffff;stroke-width:1.7;stroke-linecap:square;stroke-dasharray:none;stroke-opacity:0.424116"
         d="m 277.64128,495.66089 4.89432,9.34368 11.56838,2.22469 6.22914,0.44495"
         id="path49" />
      <path
         style="fill:none;fill-opacity:1;stroke:#ffffff;stroke-width:1.7;stroke-linecap:square;stroke-dasharray:none;stroke-opacity:0.424116"
         d="m 257.61907,455.17151 27.58615,-3.55949 4.44939,-1.33482"
         id="path50" />
      <path
         style="fill:none;fill-opacity:1;stroke:#ffffff;stroke-width:1.7;stroke-linecap:square;stroke-dasharray:none;stroke-opacity:0.424116"
         d="m 253.16969,444.04809 8.89876,-0.44495 15.12788,-8.45384"
         id="path51" />
      <path
         style="fill:none;fill-opacity:1;stroke:#ffffff;stroke-width:1.7;stroke-linecap:square;stroke-dasharray:none;stroke-opacity:0.424116"
         d="m 238.48674,448.9424 -23.13677,-0.8899 -20.02221,-8.45381"
         id="path52" />
      <path
         style="fill:none;fill-opacity:1;stroke:#ffffff;stroke-width:1.7;stroke-linecap:square;stroke-dasharray:none;stroke-opacity:0.424116"
         d="m 199.77714,429.36511 34.70516,-3.55949"
         id="path53" />
      <path
         style="fill:none;fill-opacity:1;stroke:#ffffff;stroke-width:1.7;stroke-linecap:square;stroke-dasharray:none;stroke-opacity:0.424116"
         d="m 198.88726,406.22836 27.14122,9.34368"
         id="path54" />
      <path
         style="fill:none;fill-opacity:1;stroke:#ffffff;stroke-width:1.7;stroke-linecap:square;stroke-dasharray:none;stroke-opacity:0.424116"
         d="m 250.05513,402.66884 17.79752,-12.45825"
         id="path55" />
      <path
         style="fill:none;fill-opacity:1;stroke:#ffffff;stroke-width:1.7;stroke-linecap:square;stroke-dasharray:none;stroke-opacity:0.424116"
         d="m 226.91835,383.98145 -17.35258,-7.56393"
         id="path62" />
      <path
         style="fill:none;fill-opacity:1;stroke:#ffffff;stroke-width:1.7;stroke-linecap:square;stroke-dasharray:none;stroke-opacity:0.424116"
         d="m 210.45565,351.05604 17.35258,11.56838"
         id="path63" />
      <path
         style="fill:none;fill-opacity:1;stroke:#ffffff;stroke-width:1.7;stroke-linecap:square;stroke-dasharray:none;stroke-opacity:0.424116"
         d="m 235.37217,486.31718 -21.35702,11.12345"
         id="path72" />
      <path
         style="fill:none;fill-opacity:1;stroke:#ffffff;stroke-width:1.7;stroke-linecap:square;stroke-dasharray:none;stroke-opacity:0.424116"
         d="m 224.24873,503.22482 -25.8064,14.23802"
         id="path84" />
      <path
         style="fill:none;fill-opacity:1;stroke:#ffffff;stroke-width:1.7;stroke-linecap:square;stroke-dasharray:none;stroke-opacity:0.424116"
         d="m 265.18301,586.87316 0.44495,51.16785"
         id="path89" />
      <path
         style="fill:none;fill-opacity:1;stroke:#ffffff;stroke-width:1.7;stroke-linecap:square;stroke-dasharray:none;stroke-opacity:0.424116"
         d="m 247.83044,533.03566 8.00888,14.23802"
         id="path90" />
      <path
         style="fill:none;fill-opacity:1;stroke:#ffffff;stroke-width:1.7;stroke-linecap:square;stroke-dasharray:none;stroke-opacity:0.424116"
         d="m 251.38994,530.36604 8.45382,7.56394"
         id="path95" />
      <path
         style="fill:none;fill-opacity:1;stroke:#ffffff;stroke-width:1.7;stroke-linecap:square;stroke-dasharray:none;stroke-opacity:0.424116"
         d="m 269.6324,515.68307 13.79307,27.58617 23.13678,8.89876"
         id="path96" />
      <path
         style="fill:none;fill-opacity:1;stroke:#ffffff;stroke-width:1.7;stroke-linecap:square;stroke-dasharray:none;stroke-opacity:0.424116"
         d="m 283.42547,544.60404 0.44495,13.7931"
         id="path97" />
      <path
         style="fill:none;fill-opacity:1;stroke:#ffffff;stroke-width:1.7;stroke-linecap:square;stroke-dasharray:none;stroke-opacity:0.424116"
         d="m 262.95833,542.37937 30.70072,44.04884"
         id="path98" />
      <path
         style="fill:none;fill-opacity:1;stroke:#ffffff;stroke-width:1.7;stroke-linecap:square;stroke-dasharray:none;stroke-opacity:0.424116"
         d="m 282.98052,568.18577 9.78866,4.00444 8.00888,5.33924"
         id="path99" />
      <path
         style="fill:none;fill-opacity:1;stroke:#ffffff;stroke-width:1.7;stroke-linecap:square;stroke-dasharray:none;stroke-opacity:0.424116"
         d="m 257.61907,424.91575 -5.78419,12.01332"
         id="path100" />
      <path
         style="fill:none;fill-opacity:1;stroke:#ffffff;stroke-width:1.7;stroke-linecap:square;stroke-dasharray:none;stroke-opacity:0.424116"
         d="M 244.27093,412.90242 226.47342,399.55427"
         id="path101" />
      <path
         style="fill:none;fill-opacity:1;stroke:#ffffff;stroke-width:1.7;stroke-linecap:square;stroke-dasharray:none;stroke-opacity:0.424116"
         d="m 245.16081,383.5365 10.23357,-5.33924 9.3437,-13.79307"
         id="path102" />
      <path
         style="fill:none;fill-opacity:1;stroke:#ffffff;stroke-width:1.7;stroke-linecap:square;stroke-dasharray:none;stroke-opacity:0.424116"
         d="m 234.92724,359.50988 12.9032,-10.67853"
         id="path103" />
      <path
         style="fill:none;fill-opacity:1;stroke:#ffffff;stroke-width:1.7;stroke-linecap:square;stroke-dasharray:none;stroke-opacity:0.424116"
         d="m 229.58798,342.60223 -8.00888,-5.78421"
         id="path104" />
    </g>
  </g>
</svg>
