<?xml version="1.0" encoding="UTF-8" standalone="no"?>
<!-- Created with Inkscape (http://www.inkscape.org/) -->

<svg
   width="600"
   height="600"
   viewBox="0 0 158.75 158.75"
   version="1.1"
   id="svg1"
   xml:space="preserve"
   inkscape:version="1.3.2 (091e20e, 2023-11-25)"
   sodipodi:docname="bread_bowl.svg"
   xmlns:inkscape="http://www.inkscape.org/namespaces/inkscape"
   xmlns:sodipodi="http://sodipodi.sourceforge.net/DTD/sodipodi-0.dtd"
   xmlns="http://www.w3.org/2000/svg"
   xmlns:svg="http://www.w3.org/2000/svg"><sodipodi:namedview
     id="namedview1"
     pagecolor="#ffffff"
     bordercolor="#000000"
     borderopacity="0.25"
     inkscape:showpageshadow="2"
     inkscape:pageopacity="0.0"
     inkscape:pagecheckerboard="0"
     inkscape:deskcolor="#d1d1d1"
     inkscape:document-units="mm"
     inkscape:zoom="1.1125147"
     inkscape:cx="299.77133"
     inkscape:cy="300.22076"
     inkscape:window-width="1512"
     inkscape:window-height="819"
     inkscape:window-x="114"
     inkscape:window-y="47"
     inkscape:window-maximized="0"
     inkscape:current-layer="layer1" /><defs
     id="defs1" /><g
     inkscape:label="food"
     inkscape:groupmode="layer"
     id="layer1"><path
       style="display:inline;opacity:1;fill:#b6713e;fill-opacity:1;stroke-width:2.89295;stroke-linecap:square"
       d="m 44.473195,43.046247 c 0,0 -17.361193,22.355511 -17.12337,39.003232 0.237826,16.64772 10.226458,46.137971 19.025968,50.894461 8.79951,4.75649 28.538948,10.93993 40.668003,10.93993 12.129053,0 40.192354,-10.70211 47.089264,-26.87418 6.89691,-16.17207 9.27516,-54.461826 4.75649,-60.407442 -4.51866,-5.945613 -8.56168,-30.20372 -51.370105,-30.679369 -42.808424,-0.475649 -43.04625,17.123368 -43.04625,17.123368 z"
       id="path1" /><path
       style="display:inline;opacity:1;fill:#e3bf8e;fill-opacity:1;stroke-width:2.89295;stroke-linecap:square"
       d="m 82.525128,80.860357 c 23.306812,0 47.564912,-15.458599 48.040562,-26.39853 0.47565,-10.93993 -7.37256,-20.452913 -22.59333,-23.068983 C 92.751586,28.776774 61.120916,29.0146 53.986178,34.24674 46.851442,39.478881 39.478881,53.986178 39.478881,57.553547 c 0,3.567369 5.469964,13.556001 13.080351,16.172071 7.610385,2.616071 29.965896,7.134739 29.965896,7.134739 z"
       id="path2" /><path
       style="display:inline;fill:#8d4335;fill-opacity:1;stroke-width:2.89295;stroke-linecap:square"
       d="m 53.748355,69.6826 -4.994318,-5.70779 c 0,0 -2.140421,1.189125 -2.853893,-0.475647 -0.713473,-1.664774 0,-5.70779 0,-5.70779 v -5.70779 l 4.994314,-4.280842 -0.237823,-7.610387 h 4.280842 2.61607 l 4.756491,-4.280842 5.945616,-2.378247 0.713473,4.043018 c 0,0 10.702107,-6.896912 12.366879,-4.994317 1.664772,1.902598 5.232141,3.805195 7.848211,1.902598 2.61607,-1.902598 10.464281,-1.426949 11.653403,-1.189123 1.18912,0.237824 5.70779,5.469964 7.37256,5.232141 1.66477,-0.237826 4.99432,0.951299 4.99432,0.951299 l 0.47565,0.237823 0.71347,3.567369 c 0,0 3.56737,-1.189122 4.51867,0 0.9513,1.189122 4.51866,6.896912 4.51866,6.896912 l 2.37825,4.994318 -2.85389,3.091719 v 4.280842 l -6.18344,5.469964 -4.04302,-0.237823 -5.46997,4.518665 -10.226452,1.902598 c 0,0 -8.086037,3.091719 -11.41558,2.378247 C 82.287305,75.866039 76.103865,77.292987 69.206951,75.628216 62.310038,73.963444 53.748355,69.6826 53.748355,69.6826 Z"
       id="path3" /><ellipse
       style="fill:#b76943;fill-opacity:1;stroke-width:2.89295;stroke-linecap:square"
       id="path4"
       cx="108.92365"
       cy="48.278389"
       rx="5.4699655"
       ry="4.2808423" /><ellipse
       style="fill:#b76943;fill-opacity:1;stroke-width:2.89295;stroke-linecap:square"
       id="path4-8"
       cx="114.63585"
       cy="59.010818"
       rx="5.4699655"
       ry="4.2808423" /><ellipse
       style="fill:#b76943;fill-opacity:1;stroke-width:2.89295;stroke-linecap:square"
       id="path4-9"
       cx="64.561897"
       cy="44.62257"
       rx="5.4699655"
       ry="4.2808423" /><ellipse
       style="fill:#b76943;fill-opacity:1;stroke-width:2.89295;stroke-linecap:square"
       id="path4-4"
       cx="58.868286"
       cy="60.696339"
       rx="5.4699655"
       ry="4.2808423" /><ellipse
       style="fill:#b76943;fill-opacity:1;stroke-width:2.89295;stroke-linecap:square"
       id="path4-0"
       cx="69.591141"
       cy="50.279842"
       rx="5.4699655"
       ry="4.2808423" /><ellipse
       style="fill:#b76943;fill-opacity:1;stroke-width:2.89295;stroke-linecap:square"
       id="path4-07"
       cx="66.752274"
       cy="65.51236"
       rx="5.4699655"
       ry="4.2808423" /><ellipse
       style="fill:#b76943;fill-opacity:1;stroke-width:2.89295;stroke-linecap:square"
       id="path4-06"
       cx="98.008316"
       cy="40.561806"
       rx="5.4699655"
       ry="4.2808423" /><ellipse
       style="fill:#b76943;fill-opacity:1;stroke-width:2.89295;stroke-linecap:square"
       id="path4-40"
       cx="109.36494"
       cy="53.157215"
       rx="5.4699655"
       ry="4.2808423" /><ellipse
       style="fill:#b76943;fill-opacity:1;stroke-width:2.89295;stroke-linecap:square"
       id="path4-47"
       cx="97.503456"
       cy="67.92337"
       rx="5.4699655"
       ry="4.2808423" /><ellipse
       style="fill:#b76943;fill-opacity:1;stroke-width:2.89295;stroke-linecap:square"
       id="path4-5"
       cx="97.28038"
       cy="69.10376"
       rx="5.4699655"
       ry="4.2808423" /><path
       style="fill:#e6a30f;fill-opacity:1;stroke-width:2.89295;stroke-linecap:square"
       d="m 73.725618,56.840074 c 0,0 15.458599,-3.091719 17.361194,-8.086037 1.902597,-4.994314 3.805195,-11.653403 3.805195,-11.653403 l 3.329543,0.237823 c 0,0 -2.140421,16.172072 -6.659089,17.361196 -4.518665,1.189123 -17.599017,5.70779 -17.599017,5.70779 z"
       id="path5" /><path
       style="fill:#e6a30f;fill-opacity:1;stroke-width:2.89295;stroke-linecap:square"
       d="m 64.688285,52.083583 c 0,0 29.252423,-3.805195 28.776774,1.664772 -0.47565,5.469964 6.659091,9.512982 6.659091,9.512982 l 3.32954,-3.805192 c 0,0 -9.275158,-12.129053 -13.318174,-12.129053 -4.043019,0 -26.160706,1.902595 -26.160706,1.902595 z"
       id="path6" /><path
       style="fill:#e6a30f;fill-opacity:1;stroke-width:2.89295;stroke-linecap:square"
       d="M 78.244286,41.143652 C 66.59088,52.559232 55.888776,56.126599 55.888776,56.126599 l 4.994317,1.426948 c 0,0 13.793824,-7.372562 14.745123,-8.79951 0.951299,-1.426945 4.994315,-6.896912 4.994315,-6.896912 z"
       id="path7" /><path
       style="fill:#e6a30f;fill-opacity:1;stroke-width:2.89295;stroke-linecap:square"
       d="m 83.71425,41.619302 c 0,0 10.702108,16.409894 3.329546,21.166386 -7.372562,4.756491 -5.232141,7.610387 -5.232141,7.610387 h 3.805193 c 0,0 11.41558,-8.086037 9.988632,-11.891229 -1.426948,-3.805193 -8.561684,-15.696422 -8.561684,-15.696422 z"
       id="path8" /></g></svg>
