<?xml version="1.0" encoding="UTF-8" standalone="no"?>
<!-- Created with Inkscape (http://www.inkscape.org/) -->

<svg
   width="210mm"
   height="297mm"
   viewBox="0 0 210 297"
   version="1.1"
   id="svg1"
   inkscape:version="1.3.2 (091e20e, 2023-11-25)"
   sodipodi:docname="character.svg"
   xmlns:inkscape="http://www.inkscape.org/namespaces/inkscape"
   xmlns:sodipodi="http://sodipodi.sourceforge.net/DTD/sodipodi-0.dtd"
   xmlns="http://www.w3.org/2000/svg"
   xmlns:svg="http://www.w3.org/2000/svg">
  <sodipodi:namedview
     id="namedview1"
     pagecolor="#ffffff"
     bordercolor="#000000"
     borderopacity="0.25"
     inkscape:showpageshadow="2"
     inkscape:pageopacity="0.0"
     inkscape:pagecheckerboard="0"
     inkscape:deskcolor="#d1d1d1"
     inkscape:document-units="mm"
     inkscape:zoom="1.1893044"
     inkscape:cx="192.12911"
     inkscape:cy="218.61518"
     inkscape:window-width="1608"
     inkscape:window-height="865"
     inkscape:window-x="0"
     inkscape:window-y="38"
     inkscape:window-maximized="0"
     inkscape:current-layer="g6" />
  <defs
     id="defs1" />
  <g
     inkscape:label="angle_1"
     inkscape:groupmode="layer"
     id="g6"
     style="display:inline">
    <path
       style="fill:#000000;stroke-width:2.44527;stroke-linecap:square;-inkscape-stroke:none"
       d="m 35.029041,283.76246 28.399689,0.3686 12.655662,-58.54753 22.246888,-18.24245 22.2469,17.79752 6.67408,58.73181 27.58615,1e-5 -4.44939,-58.73182 -4.00444,-44.49379 -89.87746,-0.88988 -9.788636,37.3748 z"
       id="path6"
       sodipodi:nodetypes="cccccccccccc"
       inkscape:label="pants" />
    <path
       style="display:inline;opacity:1;fill:#ffff00;stroke-width:2.44527;stroke-linecap:square;-inkscape-stroke:none"
       d="m 56.507118,180.64481 -13.404113,57.09405 -8.073964,46.0236 1.060553,0.0138 7.261445,-39.33843 1.005746,-6.54901 0.801772,-3.04818 12.458245,-54.16283 z"
       id="path9"
       inkscape:label="pant_stripes"
       sodipodi:nodetypes="ccccccccc" />
    <path
       id="rect8"
       style="fill:#ff0000;stroke-width:2.44527;stroke-linecap:square"
       inkscape:label="body"
       d="m 53.83749,76.084389 93.8819,0.889876 -1.33481,106.340175 -89.877462,-2.66963 z"
       sodipodi:nodetypes="ccccc" />
    <path
       style="display:inline;opacity:1;fill:#ffccaa;stroke-width:2.58502;stroke-linecap:square;-inkscape-stroke:none"
       d="M 89.112892,89.74331 73.642689,50.607632 89.112892,14.332131 32.424688,1.553995 14.29181,38.121753 -16.90363,37.756045 z"
       id="path11"
       inkscape:label="head"
       sodipodi:nodetypes="ccccccc" />
  </g>
  <g
     inkscape:label="angle_2"
     inkscape:groupmode="layer"
     id="g7"
     style="display:none;opacity:1">
    <path
       style="fill:#000000;stroke-width:2.44527;stroke-linecap:square;-inkscape-stroke:none"
       d="m 29.365905,285.65017 27.141215,-0.88987 51.16787,-38.26469 13.79306,-38.70959 23.58172,27.58615 -17.79751,48.49824 27.58615,1e-5 24.91651,-45.38368 -33.37034,-57.84193 -89.87746,-0.88988 24.026648,49.38812 z"
       id="path7"
       sodipodi:nodetypes="cccccccccccc"
       inkscape:label="pants" />
    <path
       id="rect8-8"
       style="display:inline;fill:#ff0000;stroke-width:2.44527;stroke-linecap:square"
       inkscape:label="body"
       d="m 76.08439,75.194514 74.74956,1.334814 -3.34567,106.028572 -90.98116,-2.80297 z"
       sodipodi:nodetypes="ccccc" />
    <path
       style="fill:#ffff00;stroke-width:2.44527;stroke-linecap:square;-inkscape-stroke:none"
       d="m 61.040646,179.75493 26.102167,48.88067 -49.67657,56.74898 11.031992,0.26559 48.523445,-43.82639 4.89895,-7.99505 -3.759614,-10.6068 -26.270656,-43.467 z"
       id="path8"
       inkscape:label="pant_stripes"
       sodipodi:nodetypes="ccccccccc" />
    <path
       style="fill:#ffccaa;stroke-width:2.58502;stroke-linecap:square;-inkscape-stroke:none"
       d="m 113.72762,83.083041 -10.05709,-25.708861 24.07809,-36.275501 38.14311,5.475548 -1.29298,41.751047 -28.35548,15.183435 z"
       id="path12"
       inkscape:label="head" />
  </g>
</svg>
