<?xml version="1.0" encoding="UTF-8" standalone="no"?>
<!-- Created with Inkscape (http://www.inkscape.org/) -->

<svg
   width="210mm"
   height="297mm"
   viewBox="0 0 210 297"
   version="1.1"
   id="svg1"
   inkscape:version="1.3.2 (091e20e, 2023-11-25)"
   sodipodi:docname="jacket.svg"
   xmlns:inkscape="http://www.inkscape.org/namespaces/inkscape"
   xmlns:sodipodi="http://sodipodi.sourceforge.net/DTD/sodipodi-0.dtd"
   xmlns="http://www.w3.org/2000/svg"
   xmlns:svg="http://www.w3.org/2000/svg">
  <sodipodi:namedview
     id="namedview1"
     pagecolor="#ffffff"
     bordercolor="#000000"
     borderopacity="0.25"
     inkscape:showpageshadow="2"
     inkscape:pageopacity="0.0"
     inkscape:pagecheckerboard="0"
     inkscape:deskcolor="#d1d1d1"
     inkscape:document-units="mm"
     inkscape:zoom="1.1893044"
     inkscape:cx="330.86567"
     inkscape:cy="660.04969"
     inkscape:window-width="1600"
     inkscape:window-height="705"
     inkscape:window-x="0"
     inkscape:window-y="38"
     inkscape:window-maximized="0"
     inkscape:current-layer="g1" />
  <defs
     id="defs1" />
  <g
     id="g1"
     inkscape:label="jacket">
    <g
       inkscape:label="Layer 1"
       inkscape:groupmode="layer"
       id="layer1">
      <path
         style="fill:#ff6600;fill-opacity:1;stroke:none;stroke-width:1.1;stroke-linecap:square"
         d="m 41.156761,210.45564 c 6.383887,5.11581 15.893163,1.35142 19.577268,-1.77974 l 2.447159,-30.92319 5.339256,-17.35258 c -2.71796,25.21315 -2.312676,36.85569 -0.889876,62.06884 21.060397,8.36535 42.120792,6.70511 63.181192,0.88988 2.05267,-36.82462 2.39256,-40.2768 0.22246,-64.96094 l 6.00667,32.03553 1.77975,13.34814 c 5.04263,4.07649 10.08526,2.91134 15.12789,1.77975 0.42462,-10.58709 4.17451,-18.79898 0.88988,-32.03553 -7.71226,-16.01777 -7.81825,-32.03553 -23.13678,-48.0533 -6.40539,-2.62232 -13.49693,-0.44155 -20.46714,0.88988 -6.69526,3.36688 -12.013929,9.6121 -24.916528,0 -8.898759,-0.88988 -15.795298,-1.67013 -24.694057,1.55728 -14.04675,13.03395 -15.424515,22.76599 -18.909862,38.26467 z"
         id="path1"
         sodipodi:nodetypes="ccccccccccccccccc" />
    </g>
  </g>
</svg>
