<?xml version="1.0" encoding="UTF-8" standalone="no"?>
<!-- Created with Inkscape (http://www.inkscape.org/) -->

<svg
   width="600"
   height="600"
   viewBox="0 0 158.75 158.75"
   version="1.1"
   id="svg1"
   xml:space="preserve"
   inkscape:version="1.3.2 (091e20e, 2023-11-25)"
   sodipodi:docname="klobb.svg"
   xmlns:inkscape="http://www.inkscape.org/namespaces/inkscape"
   xmlns:sodipodi="http://sodipodi.sourceforge.net/DTD/sodipodi-0.dtd"
   xmlns="http://www.w3.org/2000/svg"
   xmlns:svg="http://www.w3.org/2000/svg"><sodipodi:namedview
     id="namedview1"
     pagecolor="#ffffff"
     bordercolor="#000000"
     borderopacity="0.25"
     inkscape:showpageshadow="2"
     inkscape:pageopacity="0.0"
     inkscape:pagecheckerboard="0"
     inkscape:deskcolor="#d1d1d1"
     inkscape:document-units="mm"
     inkscape:zoom="0.55625735"
     inkscape:cx="306.5128"
     inkscape:cy="275.05255"
     inkscape:window-width="1512"
     inkscape:window-height="819"
     inkscape:window-x="114"
     inkscape:window-y="38"
     inkscape:window-maximized="0"
     inkscape:current-layer="layer3" /><defs
     id="defs1" /><g
     inkscape:groupmode="layer"
     id="layer3"
     inkscape:label="klobb"><path
       style="fill:#674c2a;fill-opacity:1;stroke:none;stroke-width:2.89295;stroke-linecap:square"
       d="m 28.538948,96.556776 28.399635,-12.28527 3.944507,11.333971 -2.378247,8.561683 11.41558,25.20941 -3.805192,3.32954 -19.025965,9.03733 -2.853897,-0.95129 -6.659086,-19.97727 0.475647,-17.59902 z"
       id="path13"
       sodipodi:nodetypes="ccccccccccc" /><path
       style="fill:#6e6f74;fill-opacity:1;stroke:none;stroke-width:2.89295;stroke-linecap:square"
       d="m 29.600708,96.163497 -5.342602,-17.152223 97.368754,-38.474823 -2.71458,6.130683 -9.51298,4.280842 -5.70779,8.086034 -19.025964,14.745123 z"
       id="path14"
       sodipodi:nodetypes="cccccccc" /><path
       style="fill:#b8b8bf;fill-opacity:1;stroke:none;stroke-width:2.89295;stroke-linecap:square"
       d="M 24.258106,78.957756 19.501615,67.06653 115.91907,30.38384 l 5.84711,10.046337 z"
       id="path15"
       sodipodi:nodetypes="ccccc" /><path
       style="fill:none;fill-opacity:1;stroke:#000000;stroke-width:2.89295;stroke-linecap:square"
       d="M 22.35551,79.909055 17.123369,66.115231 125.87885,25.098943 l 7.30291,21.039024 c 0,0 1.9026,6.183439 6.65909,4.280842 4.75649,-1.902598 -7.61039,-25.685054 -7.61039,-25.685054 l 1.42695,-1.902596 3.80519,1.902596 8.08604,21.404212 -6.18344,4.280842 -11.1081,-26.271164"
       id="path16"
       sodipodi:nodetypes="ccccscccccc" /><path
       style="fill:none;fill-opacity:1;stroke:#000000;stroke-width:2.89295;stroke-linecap:square"
       d="m 59.931791,96.556776 2.378247,1.902595 15.69642,-6.183437 c 0,0 4.756493,-2.378247 2.853896,-8.561686 -1.902598,-6.183437 -9.037333,-5.70779 -9.037333,-5.70779"
       id="path17" /><path
       style="fill:none;fill-opacity:1;stroke:#000000;stroke-width:2.89295;stroke-linecap:square"
       d="m 62.310038,82.287302 1.902595,5.707787 6.18344,2.853897"
       id="path18" /><path
       style="fill:#000000;fill-opacity:1;stroke:none;stroke-width:2.89295;stroke-linecap:square"
       d="m 82.287302,74.676915 c 0,0 4.756491,16.172071 10.939928,20.928562 6.18344,4.756493 17.12337,14.745123 17.12337,14.745123 l 11.41558,-14.269474 c 0,0 -13.31818,-9.512982 -15.22077,-13.318175 -1.9026,-3.805195 -9.512985,-19.501617 -9.512985,-19.501617 z"
       id="path19" /></g></svg>
