<?xml version="1.0" encoding="UTF-8" standalone="no"?>
<!-- Created with Inkscape (http://www.inkscape.org/) -->

<svg
   width="210mm"
   height="297mm"
   viewBox="0 0 210 297"
   version="1.1"
   id="svg1"
   inkscape:export-filename="mono_medal.svg"
   inkscape:export-xdpi="96"
   inkscape:export-ydpi="96"
   inkscape:version="1.3.2 (091e20e, 2023-11-25)"
   sodipodi:docname="mono_medal.svg"
   xmlns:inkscape="http://www.inkscape.org/namespaces/inkscape"
   xmlns:sodipodi="http://sodipodi.sourceforge.net/DTD/sodipodi-0.dtd"
   xmlns="http://www.w3.org/2000/svg"
   xmlns:svg="http://www.w3.org/2000/svg">
  <sodipodi:namedview
     id="namedview1"
     pagecolor="#ffffff"
     bordercolor="#000000"
     borderopacity="0.25"
     inkscape:showpageshadow="2"
     inkscape:pageopacity="0.0"
     inkscape:pagecheckerboard="0"
     inkscape:deskcolor="#d1d1d1"
     inkscape:document-units="mm"
     inkscape:zoom="0.2102413"
     inkscape:cx="313.925"
     inkscape:cy="409.05378"
     inkscape:window-width="1608"
     inkscape:window-height="621"
     inkscape:window-x="0"
     inkscape:window-y="38"
     inkscape:window-maximized="0"
     inkscape:current-layer="layer1" />
  <defs
     id="defs1" />
  <g
     inkscape:label="Layer 1"
     inkscape:groupmode="layer"
     id="layer1"
     transform="matrix(1.9396446,0,0,1.9396446,-86.596845,-132.59177)">
    <text
       xml:space="preserve"
       style="font-size:21.1667px;line-height:0;font-family:Luminari;-inkscape-font-specification:Luminari;letter-spacing:0.177271px;fill:#00ffff;stroke:#293241;stroke-width:1.79387;stroke-linecap:square"
       x="63.626125"
       y="153.94853"
       id="text1"><tspan
         sodipodi:role="line"
         id="tspan1"
         style="stroke-width:1.79387"
         x="63.626125"
         y="153.94853"></tspan></text>
    <path
       id="path3"
       style="fill:#293241;fill-opacity:1;stroke:#293241;stroke-width:1.79387;stroke-linecap:square"
       d="m 46.27366,97.334921 24.637773,39.179009 a 47.163425,47.163425 0 0 0 -17.963761,36.90576 47.163425,47.163425 0 0 0 47.163528,47.16301 47.163425,47.163425 0 0 0 47.16301,-47.16301 47.163425,47.163425 0 0 0 -19.81997,-38.41213 l 0.0202,-0.002 23.80475,-37.225644 -37.37808,-0.15813 L 99.666267,116.6955 88.53413,97.514239 Z m 53.392607,34.705379 12.422503,25.17108 27.77763,4.03593 -20.10007,19.59311 4.74493,27.6655 -24.844993,-13.06225 -24.845512,13.06225 4.745447,-27.6655 -20.100582,-19.59311 27.778149,-4.03593 z" />
  </g>
</svg>
