<?xml version="1.0" encoding="UTF-8" standalone="no"?>
<!-- Created with Inkscape (http://www.inkscape.org/) -->

<svg
   width="1020"
   height="1980"
   viewBox="0 0 269.87499 523.875"
   version="1.1"
   id="svg1"
   xml:space="preserve"
   inkscape:version="1.3.2 (091e20e, 2023-11-25)"
   sodipodi:docname="shop_lift.svg"
   xmlns:inkscape="http://www.inkscape.org/namespaces/inkscape"
   xmlns:sodipodi="http://sodipodi.sourceforge.net/DTD/sodipodi-0.dtd"
   xmlns:xlink="http://www.w3.org/1999/xlink"
   xmlns="http://www.w3.org/2000/svg"
   xmlns:svg="http://www.w3.org/2000/svg"><sodipodi:namedview
     id="namedview1"
     pagecolor="#ffffff"
     bordercolor="#000000"
     borderopacity="0.25"
     inkscape:showpageshadow="2"
     inkscape:pageopacity="0.0"
     inkscape:pagecheckerboard="0"
     inkscape:deskcolor="#d1d1d1"
     inkscape:document-units="px"
     inkscape:zoom="0.5946522"
     inkscape:cx="243.84001"
     inkscape:cy="2139.0655"
     inkscape:window-width="1664"
     inkscape:window-height="973"
     inkscape:window-x="0"
     inkscape:window-y="38"
     inkscape:window-maximized="0"
     inkscape:current-layer="g108"
     showguides="true"><sodipodi:guide
       position="134.8162,535.88831"
       orientation="1,0"
       id="guide104"
       inkscape:locked="false" /></sodipodi:namedview><defs
     id="defs1"><linearGradient
   id="linearGradient114"
   inkscape:collect="always"><stop
     style="stop-color:#ff8e8e;stop-opacity:1;"
     offset="0"
     id="stop114" /><stop
     style="stop-color:#ff0000;stop-opacity:1;"
     offset="1"
     id="stop115" /></linearGradient><linearGradient
   id="linearGradient104"
   inkscape:collect="always"><stop
     style="stop-color:#9bff9d;stop-opacity:1;"
     offset="0"
     id="stop104" /><stop
     style="stop-color:#07ff07;stop-opacity:0;"
     offset="1"
     id="stop105" /></linearGradient><linearGradient
   id="linearGradient72"
   inkscape:collect="always"><stop
     style="stop-color:#808080;stop-opacity:1;"
     offset="0"
     id="stop72" /><stop
     style="stop-color:#808080;stop-opacity:0;"
     offset="1"
     id="stop73" /></linearGradient><linearGradient
   id="linearGradient70"
   inkscape:collect="always"><stop
     style="stop-color:#808080;stop-opacity:1;"
     offset="0"
     id="stop70" /><stop
     style="stop-color:#808080;stop-opacity:0;"
     offset="1"
     id="stop71" /></linearGradient><linearGradient
   id="linearGradient63"
   inkscape:collect="always"><stop
     style="stop-color:#ffffff;stop-opacity:1;"
     offset="0"
     id="stop64" /><stop
     style="stop-color:#000000;stop-opacity:1;"
     offset="1"
     id="stop63" /></linearGradient><linearGradient
   id="linearGradient19"
   inkscape:collect="always"><stop
     style="stop-color:#2c7ea0;stop-opacity:1;"
     offset="0"
     id="stop19" /><stop
     style="stop-color:#d6e8f0;stop-opacity:1;"
     offset="0.62836623"
     id="stop21" /><stop
     style="stop-color:#2c64a0;stop-opacity:1;"
     offset="1"
     id="stop20" /></linearGradient><linearGradient
   inkscape:collect="always"
   xlink:href="#linearGradient19"
   id="linearGradient20"
   x1="75.378042"
   y1="364.23732"
   x2="102.25779"
   y2="364.23732"
   gradientUnits="userSpaceOnUse"
   gradientTransform="translate(-6.3500003,-39.158335)" /><linearGradient
   inkscape:collect="always"
   xlink:href="#linearGradient63"
   id="linearGradient64"
   x1="-21.543246"
   y1="117.55248"
   x2="175.92753"
   y2="117.55248"
   gradientUnits="userSpaceOnUse"
   gradientTransform="matrix(0.87842368,0,0,0.94424348,21.340245,-5.4011914)" /><linearGradient
   inkscape:collect="always"
   xlink:href="#linearGradient70"
   id="linearGradient71"
   x1="132.24461"
   y1="-3.5639024"
   x2="133.23029"
   y2="41.819771"
   gradientUnits="userSpaceOnUse" /><linearGradient
   inkscape:collect="always"
   xlink:href="#linearGradient72"
   id="linearGradient73"
   x1="122.19772"
   y1="227.67384"
   x2="122.20863"
   y2="242.77554"
   gradientUnits="userSpaceOnUse" /><radialGradient
   inkscape:collect="always"
   xlink:href="#linearGradient104"
   id="radialGradient105"
   cx="168.73602"
   cy="269.18744"
   fx="168.73602"
   fy="269.18744"
   r="8.998764"
   gradientTransform="matrix(1.4791667,0,0,1.5327745,-80.665207,-142.9713)"
   gradientUnits="userSpaceOnUse" /><radialGradient
   inkscape:collect="always"
   xlink:href="#linearGradient114"
   id="radialGradient115"
   cx="73.148827"
   cy="367.67825"
   fx="73.148827"
   fy="367.67825"
   r="2.9899821"
   gradientTransform="matrix(1,0,0,0.90476189,0,35.083215)"
   gradientUnits="userSpaceOnUse" /><radialGradient
   inkscape:collect="always"
   xlink:href="#linearGradient114"
   id="radialGradient127"
   gradientUnits="userSpaceOnUse"
   gradientTransform="matrix(1,0,0,0.90476189,0,35.083215)"
   cx="73.148827"
   cy="367.67825"
   fx="73.148827"
   fy="367.67825"
   r="2.9899821" />

      <filter
   id="strokeFilterRed"
   x="-10%"
   y="-10%"
   width="120%"
   height="120%"
   inkscape:label="Outer Stroke"
   inkscape:menu="Shadows and Glows"
   inkscape:menu-tooltip="Outer Stroke">
        <feMorphology
   operator="dilate"
   radius="1"
   in="SourceAlpha"
   result="dilated"
   id="feMorphology1" />
        <feFlood
   flood-color="red"
   id="feFlood1" />
        <feComposite
   in2="dilated"
   operator="in"
   id="feComposite1" />
        <feMerge
   id="feMerge2">
          <feMergeNode
   id="feMergeNode1" />
          <feMergeNode
   in="SourceGraphic"
   id="feMergeNode2" />
        </feMerge>
      </filter>

        <filter
   id="strokeFilterGreen"
   x="-10%"
   y="-10%"
   width="120%"
   height="120%"
   inkscape:label="Outer Stroke"
   inkscape:menu="Shadows and Glows"
   inkscape:menu-tooltip="Outer Stroke">
        <feMorphology
   operator="dilate"
   radius="1"
   in="SourceAlpha"
   result="dilated"
   id="feMorphology2" />
        <feFlood
   flood-color="#00ff00"
   id="feFlood2" />
        <feComposite
   in2="dilated"
   operator="in"
   id="feComposite2" />
        <feMerge
   id="feMerge4">
          <feMergeNode
   id="feMergeNode3" />
          <feMergeNode
   in="SourceGraphic"
   id="feMergeNode4" />
        </feMerge>
      </filter>

      <filter
   id="strokeFilterYellow"
   x="-10%"
   y="-10%"
   width="120%"
   height="120%"
   inkscape:label="Outer Stroke"
   inkscape:menu="Shadows and Glows"
   inkscape:menu-tooltip="Outer Stroke">
        <feMorphology
   operator="dilate"
   radius="1"
   in="SourceAlpha"
   result="dilated"
   id="feMorphology2" />
        <feFlood
   flood-color="yellow"
   id="feFlood2" />
        <feComposite
   in2="dilated"
   operator="in"
   id="feComposite2" />
        <feMerge
   id="feMerge4">
          <feMergeNode
   id="feMergeNode3" />
          <feMergeNode
   in="SourceGraphic"
   id="feMergeNode4" />
        </feMerge>
      </filter>

      <filter
   id="ghostFilter"
   x="-10%"
   y="-10%"
   width="120%"
   height="120%"
   inkscape:label="Outer Stroke"
   inkscape:menu="Shadows and Glows"
   inkscape:menu-tooltip="Outer Stroke">
        <feMorphology
   operator="dilate"
   radius="1"
   in="SourceAlpha"
   result="dilated"
   id="feMorphology4" />
        <feFlood
   flood-color="red"
   id="feFlood4" />
        <feComposite
   in2="dilated"
   operator="in"
   id="feComposite4" />
        <feMerge
   id="feMerge6">
          <feMergeNode
   id="feMergeNode5" />
          <feMergeNode
   in="SourceGraphic"
   id="feMergeNode6" />
        </feMerge>
        <feComponentTransfer
   id="feComponentTransfer6">
          <feFuncA
   type="linear"
   slope="0.5"
   id="feFuncA6" />
        </feComponentTransfer>

      </filter>


      </defs><g
     inkscape:label="main_chair"
     inkscape:groupmode="layer"
     id="layer1"><g
       id="g1"
       inkscape:label="cable"
       style="display:inline"><path
         style="display:inline;fill:none;stroke:url(#linearGradient64);stroke-width:2.227;stroke-linecap:square;-inkscape-stroke:none"
         d="M 174.74811,-94.805838 C 167.98452,38.125809 94.563948,235.53739 3.9151168,305.60427"
         id="path1"
         sodipodi:nodetypes="cc"
         inkscape:label="cable" /></g><g
       id="g10"
       inkscape:label="chair"
       transform="translate(0,4.4493795)"><g
         id="g6"
         inkscape:label="skis"><g
           id="g62"
           inkscape:label="player_right_leg"><path
             style="fill:#333333;fill-opacity:1;stroke:none;stroke-width:1.25781;stroke-linecap:square;stroke-dasharray:none"
             d="M 21.593205,504.17551 84.84668,429.91344 c 0,0 4.904324,-5.96476 7.503101,-5.53317 2.598772,0.43158 -1.889029,7.12463 -1.889029,7.12463 l -60.708921,77.03106 c 0,0 -7.342411,6.71516 -10.590883,6.17566 -3.248469,-0.53949 2.432257,-10.53611 2.432257,-10.53611 z"
             id="path24"
             inkscape:label="left_ski_down"
             sodipodi:nodetypes="ccsccsc" /><path
             style="fill:#666666;fill-opacity:1;stroke:none;stroke-width:1.6;stroke-linecap:square;stroke-dasharray:none"
             d="m 53.757109,458.0328 c 0,0 -3.494345,5.72135 -0.379779,8.16851 3.114564,2.44715 8.966232,1.80906 8.966232,1.80906 l 11.785283,-14.19983 1.334813,-0.44494 2.262859,-2.72126 -2.430404,-19.94822 -17.352582,2.0022 1.557285,16.01777 c 0,0 1.177503,2.355 -0.602248,3.46736 -1.779752,1.11234 -5.141459,5.84935 -5.141459,5.84935 z"
             id="path26"
             sodipodi:nodetypes="cscccccccsc"
             inkscape:label="right boot" /></g><g
           id="g61"
           inkscape:label="player_left_leg"
           inkscape:transform-center-x="-15.517396"
           inkscape:transform-center-y="35.576215"
           transform="rotate(-6.7852586,92.128969,436.638)"
           style="display:inline"><path
             style="fill:#333333;fill-opacity:1;stroke:none;stroke-width:1.25781;stroke-linecap:square;stroke-dasharray:none"
             d="m 118.14195,511.09872 -38.560186,-75.4566 c 0,0 -3.158434,-6.13478 -0.614984,-6.77253 2.543443,-0.63775 6.883271,5.87423 6.883271,5.87423 l 42.336459,73.8499 c 0,0 2.20992,9.25578 -0.9694,10.05296 -3.17931,0.79719 -9.07516,-7.54796 -9.07516,-7.54796 z"
             id="path25"
             inkscape:label="right_ski_down"
             sodipodi:nodetypes="ccsccsc"
             inkscape:transform-center-x="-12.231006"
             inkscape:transform-center-y="25.944132" /><path
             style="fill:#666666;fill-opacity:1;stroke:none;stroke-width:1.6;stroke-linecap:square;stroke-dasharray:none"
             d="m 84.896664,440.87403 -0.117275,10.31674 1.808036,2.96391 1.33506,-0.009 c 1.847333,4.43374 3.575792,8.83134 7.269068,13.82598 0,0 3.978287,0.30931 6.891887,-1.27485 4.02925,-2.19074 3.08064,-4.91101 1.2348,-8.86979 -1.53043,-3.28229 -4.429857,-7.78521 -4.429857,-7.78521 0,0 -0.808645,-1.40582 -0.183141,-2.98041 0.625504,-1.57458 1.734858,-7.49389 1.734858,-7.49389 z"
             id="path27"
             inkscape:label="left boot"
             sodipodi:nodetypes="cccccsscscc"
             inkscape:transform-center-x="-3.6181174"
             inkscape:transform-center-y="5.9629192" /></g></g><g
         id="g11"
         inkscape:label="Seat"
         transform="translate(-6.3500003,-39.158335)"><path
           style="fill:none;stroke:#000000;stroke-width:13.2;stroke-linecap:square;stroke-dasharray:none"
           d="m 57.396996,443.74497 149.499154,2.22467"
           id="path10" /><path
           style="fill:none;stroke:#4d4d4d;stroke-width:6.20001;stroke-linecap:square;stroke-dasharray:none"
           d="m 44.775834,399.80679 c 9.061659,-5.00499 16.180665,-6.33982 29.97374,-6.33982 13.793079,0 113.459176,0.88988 122.357936,1.33483 8.89876,0.44492 25.99333,2.75431 25.319,6.05805"
           id="path4" /><path
           style="fill:none;stroke:#808080;stroke-width:10.7;stroke-linecap:square;stroke-dasharray:none"
           d="m 144.46997,114.23039 -27.25035,0.24844 -13.33591,36.70006 c -2.62448,12.4737 -1.98439,31.2849 5.50119,50.4955 9.03746,23.19325 30.25433,65.42651 29.55704,80.88478"
           id="path2"
           sodipodi:nodetypes="cccsc" /><path
           style="fill:none;stroke:#808080;stroke-width:6.2;stroke-linecap:square;stroke-dasharray:none"
           d="m 50.277987,452.64373 c 0,0 -6.674067,-64.51602 -7.563945,-72.07996 -0.889876,-7.56393 0.444939,-16.46269 2.22469,-24.47157 1.779752,-8.00889 7.512348,-37.91315 18.050731,-53.03607 10.538383,-15.12292 18.60538,-14.91131 34.315078,-14.91131 h 84.972999 c 14.23801,0 32.73073,11.77327 36.18699,25.67826 3.28935,13.23347 6.22914,36.92985 7.56395,44.04886 1.33481,7.11901 2.66962,14.68295 1.33481,19.57726 -1.33481,4.89432 -16.01776,78.30908 -16.01776,78.30908 z"
           id="path3"
           sodipodi:nodetypes="csssssssscc" /><path
           style="fill:none;stroke:#4d4d4d;stroke-width:3.2;stroke-linecap:square;stroke-dasharray:none"
           d="m 67.185629,436.62596 3.114567,-43.60391"
           id="path5" /><path
           style="fill:none;stroke:#4d4d4d;stroke-width:3.2;stroke-linecap:square;stroke-dasharray:none"
           d="m 131.25669,437.96076 2.2247,-44.49379"
           id="path6" /><path
           style="fill:none;stroke:#4d4d4d;stroke-width:3.2;stroke-linecap:square;stroke-dasharray:none"
           d="m 194.88282,439.29558 2.66963,-44.49378"
           id="path7" /><path
           style="fill:none;stroke:#4d4d4d;stroke-width:7.8;stroke-linecap:square;stroke-dasharray:none"
           d="m 68.965383,401.03093 127.252257,2.66962"
           id="path8" /><path
           style="fill:none;stroke:#4d4d4d;stroke-width:7.8;stroke-linecap:square;stroke-dasharray:none"
           d="m 68.075505,413.93413 125.917435,1.3348"
           id="path9" /></g><path
         style="fill:#d40000;stroke:none;stroke-width:13.2;stroke-linecap:square;stroke-dasharray:none"
         d="m 75.63945,452.05694 c 0,0 -13.348136,-5.33923 -11.568385,-14.23799 1.779752,-8.89876 6.229131,-9.78863 6.229131,-9.78863 0,0 31.636054,-3.03014 36.707374,0.6674 7.96245,5.80549 6.22913,17.35257 4.22692,21.35702 -3.55948,7.11902 -35.59504,2.0022 -35.59504,2.0022 z"
         id="path11"
         sodipodi:nodetypes="cscssc"
         inkscape:label="butt"
         transform="translate(-6.3500004,-39.158336)" /><g
         id="g2"
         inkscape:label="right_pants"><path
           style="fill:#ff0000;stroke:none;stroke-width:13.2;stroke-linecap:square;stroke-dasharray:none"
           d="m 75.194514,430.69994 c 0,0 -11.568388,0 -12.458264,8.4538 -0.889875,8.45384 -3.114566,28.92097 -0.444936,34.70519 2.669627,5.78419 1.779751,13.79307 7.119006,12.9032 5.339254,-0.8899 15.12789,-7.56395 14.238014,-15.12791 -0.889876,-7.56394 0,-29.3659 -0.444937,-32.03552 -0.444939,-2.66964 -8.008883,-8.89876 -8.008883,-8.89876 z"
           id="path12"
           sodipodi:nodetypes="csssssc"
           inkscape:label="right_pants_base"
           transform="translate(-6.3500004,-39.158336)" /></g><g
         id="g13"
         inkscape:label="left_pants"
         transform="translate(-6.3500003,-39.158335)"><path
           style="fill:#ff0000;stroke:none;stroke-width:13.2;stroke-linecap:square;stroke-dasharray:none"
           d="m 90.98981,437.15153 -1.112345,38.04219 c 0,0 -0.444937,8.00889 3.114566,8.00889 3.559503,0 16.462699,4.44939 16.462699,-3.11457 0,-7.56393 2.44716,-21.80196 1.55728,-25.8064 -0.88987,-4.00444 3.78198,-19.57726 -3.78196,-21.80196 -7.563949,-2.22469 -16.24024,4.67185 -16.24024,4.67185 z"
           id="path13"
           sodipodi:nodetypes="ccssssc"
           inkscape:label="left_pants_base" /></g><g
         id="g21"
         inkscape:label="player_jacket"
         transform="translate(-6.3500003,-39.158335)"><path
           style="fill:#ff6600;stroke:none;stroke-width:13.2;stroke-linecap:square;stroke-dasharray:none"
           d="m 68.586862,425.99363 c 0,0 8.180086,5.66315 16.360172,5.66315 8.180083,0 23.281776,-0.62924 23.281776,-0.62924 0,0 4.40466,-22.0233 4.40466,-32.72033 0,-10.69705 1.88771,-18.87712 -5.0339,-18.87712 -6.9216,0 -33.978809,-5.03391 -38.38347,-1.25849 -4.404659,3.77542 -2.516947,23.91103 -2.516947,23.91103 z"
           id="path14"
           inkscape:label="jacket base" /><path
           style="fill:#ff6600;stroke:none;stroke-width:13.2;stroke-linecap:square;stroke-dasharray:none"
           d="m 68.965383,379.3096 c 0,0 -12.903202,10.01112 -14.460484,14.23802 -1.557282,4.22691 -1.557282,29.81083 -0.889876,31.36812 0.667406,1.55728 10.678512,8.89876 10.678512,8.89876 0,0 -1.150661,-3.71591 0.667405,-6.45159 2.164313,-3.25667 5.339255,-3.55951 5.339255,-3.55951 -2.9015,-4.99145 -5.226612,-5.61946 -6.006661,-13.79309 4.183437,-7.06534 6.818624,-8.93259 7.786415,-14.01554 l 8.008883,-9.78862 -2.224691,-8.45384 z"
           id="path17"
           sodipodi:nodetypes="csscscccccc"
           inkscape:label="right arm" /><g
           id="g116"
           inkscape:label="jacket_big_stripe"
           style="display:none"><path
             id="rect115"
             style="fill:#28a8ff;fill-opacity:1;stroke:none;stroke-width:1.1;stroke-linecap:square;stroke-dasharray:none;stroke-opacity:1"
             d="m 258.56228,227.45805 c -1.46626,1.36194 -2.43774,2.59568 -2.65317,3.61059 -0.81108,3.82106 5.09862,11.71956 9.07996,16.52478 l 53.1418,1.8e-4 c -1.56593,-3.14042 -6.19792,-12.28545 -10.98455,-20.13556 z"
             transform="rotate(37.414619,-54.644868,28.95536)"
             inkscape:label="stripe_1" /></g><path
           style="fill:#ff6600;stroke:none;stroke-width:13.2;stroke-linecap:square;stroke-dasharray:none"
           d="m 109.9704,379.13126 15.43866,18.40057 c 0,0 6.29237,6.29237 4.40466,11.32626 -1.88771,5.0339 -20.66341,19.20756 -20.66341,19.20756 l -0.25407,-7.98925 -2.65652,-6.10806 c 0,0 9.73081,-5.11025 9.73081,-9.51491 0,-4.40465 -19.595791,-13.55094 -19.595791,-13.55094 1.845328,-9.07855 -0.165178,-8.55796 13.595661,-11.77123 z"
           id="path15"
           sodipodi:nodetypes="ccscccscc"
           inkscape:label="left arm" /><g
           id="g117"
           inkscape:label="jacket_trim_stripe"
           style="display:none"><path
             id="path119"
             style="font-variation-settings:normal;opacity:1;vector-effect:none;fill:#fff200;fill-opacity:1;stroke:none;stroke-width:1.1;stroke-linecap:square;stroke-linejoin:miter;stroke-miterlimit:4;stroke-dasharray:none;stroke-dashoffset:0;stroke-opacity:1;-inkscape-stroke:none;stop-color:#000000;stop-opacity:1"
             inkscape:label="right arm stripe"
             d="m 69.030928,379.29825 -0.06563,0.0114 c 0,0 -11.130808,8.63974 -13.956254,13.25449 -0.721629,8.49101 -1.882211,26.30366 0.735872,29.75477 2.478115,3.26661 6.295473,6.1838 8.281665,7.5923 0.125879,-0.85487 0.399483,-1.7434 0.93431,-2.54816 0.129707,-0.19517 0.263394,-0.37842 0.399459,-0.55294 l -8.041886,-7.16545 c 0,0 -1.573183,-23.28135 -0.31471,-26.27024 1.258474,-2.98885 9.752893,-11.16934 9.752893,-11.16934 l 2.359546,-2.83135 z" /><path
             style="display:inline;fill:#fff200;fill-opacity:1;stroke:none;stroke-width:1.1;stroke-linecap:square;stroke-dasharray:none;stroke-opacity:1"
             d="m 109.54492,379.37367 -14.157848,-0.94386 12.988428,3.07235 17.21497,21.62522 c 0,0 2.51694,1.88772 0.94385,3.30351 -1.57309,1.41578 -18.40519,11.95548 -18.40519,11.95548 l 0.62924,1.57311 0.31462,2.67425 20.76483,-16.04555 c 0,0 1.25847,-2.51693 -0.15731,-3.4608 -1.41579,-0.94385 -20.13559,-23.75371 -20.13559,-23.75371 z"
             id="path117"
             sodipodi:nodetypes="ccccsccccsc"
             inkscape:label="left arm stripe" /><path
             id="path115"
             style="fill:#fff200;fill-opacity:1;stroke:none;stroke-width:1.1;stroke-linecap:square;stroke-dasharray:none;stroke-opacity:1"
             inkscape:label="torso stripe"
             d="m 258.56229,227.45805 c -1.46626,1.36194 -2.43775,2.59568 -2.65318,3.61059 -0.20554,0.96834 0.0233,2.19971 0.54024,3.57507 l 52.03132,-1.26098 c 0.25712,-0.75934 0.50889,-1.58666 0.7285,-2.44213 -0.6798,-1.17307 -1.36714,-2.3416 -2.06285,-3.48256 z"
             transform="rotate(37.414619,-54.644868,28.95536)" /></g><path
           id="path16"
           style="fill:#000000;stroke:none;stroke-width:13.2;stroke-linecap:square;stroke-dasharray:none;fill-opacity:0.46777546"
           inkscape:label="jacket shadow"
           d="M 107.59963 379.43003 C 107.49549 379.43003 107.47443 379.53807 107.50506 379.71476 C 107.69038 379.67094 107.87878 379.62622 108.07144 379.58092 C 108.20628 379.54884 108.33491 379.51801 108.47658 379.4848 C 108.19949 379.45211 107.91151 379.43003 107.59963 379.43003 z M 106.3935 396.15769 C 104.55057 407.55444 97.576097 426.86335 101.00107 428.47509 C 102.55244 429.20514 105.40926 430.11671 108.24507 430.94471 C 108.25884 430.87574 108.61265 429.07905 109.09825 426.42096 L 109.09825 426.42044 L 108.89619 420.07664 L 106.23951 413.96849 C 106.23951 413.96849 106.41611 413.87467 106.70563 413.71217 C 106.70853 413.71055 106.71459 413.70761 106.71752 413.70597 C 106.73019 413.69884 106.75659 413.68288 106.76971 413.67548 C 107.05865 413.51253 107.45175 413.28493 107.91796 413.00162 C 108.24787 412.80177 108.6212 412.56466 109.00885 412.31381 C 109.82843 411.78175 110.73987 411.15254 111.63401 410.4488 C 111.63499 410.44804 111.63614 410.44751 111.63711 410.44674 C 112.10886 406.79979 112.47083 403.22537 112.58899 400.23651 C 110.84756 398.8766 108.63644 397.46438 106.3935 396.15769 z " /></g><path
         style="fill:#f1dcb1;fill-opacity:1;stroke:none;stroke-width:1.64548;stroke-linecap:square;stroke-dasharray:none"
         d="m 70.624666,326.35816 c 0,0 1.531626,12.23581 6.117718,14.23802 6.09279,2.66002 10.760916,0.85665 12.885627,-2.00224 2.810744,-3.78198 5.467532,-15.35035 5.467532,-15.35035 l -24.235582,-0.88988 z"
         id="path21"
         inkscape:label="face"
         sodipodi:nodetypes="cssccc" /><g
         id="g7"><path
           id="path18"
           style="display:inline;fill:#008080;stroke:none;stroke-width:12.5561;stroke-linecap:square;stroke-dasharray:none"
           d="m 83.408601,306.2929 c -13.069841,-0.22251 -16.137895,7.38407 -16.137773,16.76719 0.226131,5.86603 3.462547,8.329 4.946719,11.03371 l -1.334814,-14.27253 h 23.343213 l -2.190926,14.71745 c 2.398916,-3.10358 4.837793,-7.10735 4.841723,-11.25616 1.2e-4,-9.38312 -5.292619,-16.9897 -13.468142,-16.98966 z"
           inkscape:label="helmet"
           sodipodi:nodetypes="cccccccc" /></g><path
         style="fill:url(#linearGradient20);stroke:#666666;stroke-width:1.6;stroke-linecap:square;stroke-dasharray:none"
         d="m 69.845622,320.24025 h 25.027751 l 0.22247,5.89544 c 0,0 -2.892088,3.11457 -4.783073,3.2258 -1.890988,0.11123 -6.006664,-2.78087 -7.119009,-2.78087 -1.112345,0 -6.117897,3.33703 -7.119006,3.33703 -1.001112,0 -5.450491,-2.33593 -5.784194,-3.44826 -0.333703,-1.11234 -0.444939,-6.22914 -0.444939,-6.22914 z"
         id="path19"
         inkscape:label="goggles" /><g
         id="g109"
         inkscape:label="weapons"
         inkscape:transform-center-x="13.241062"
         inkscape:transform-center-y="-22.852566"
         transform="rotate(-29.893243,125.49454,329.94182)"><g
           id="g120"
           inkscape:label="left_hand"
           sodipodi:insensitive="true"><g
             id="g107"
             inkscape:label="sword"
             inkscape:transform-center-x="13.40744"
             inkscape:transform-center-y="-19.923613"
             transform="rotate(-4.4453081,73.774966,355.00055)"
             style="display:none"
             sodipodi:insensitive="true"><path
               id="rect112"
               style="fill:#999999;stroke-width:1.7;stroke-linecap:square;stroke-opacity:0.424116"
               d="m 68.844246,293.49448 5.191207,-5.34852 -0.471928,63.23834 h -4.719279 z"
               sodipodi:nodetypes="ccccc" /><path
               id="path112"
               style="fill:#cccccc;stroke-width:1.7;stroke-linecap:square;stroke-opacity:0.424116"
               d="m 78.912042,293.65179 -4.797934,-5.34852 -0.707892,63.55296 5.505826,-0.31462 z"
               sodipodi:nodetypes="ccccc" /><path
               id="rect110"
               style="fill:#ffcc00;stroke:#aa4400;stroke-width:1.1;stroke-linecap:square;stroke-dasharray:none;stroke-opacity:1"
               d="m 62.766193,351.38419 c -1.938607,1.10473 -4.541266,2.08519 0,4.4049 h 8.022766 v 9.23613 a 4.6718473,4.2269092 0 0 0 -1.840197,3.34863 4.6718473,4.2269092 0 0 0 4.672066,4.22662 4.6718473,4.2269092 0 0 0 4.671549,-4.22662 4.6718473,4.2269092 0 0 0 -1.525488,-3.12332 v -9.46144 h 7.393347 c 3.802251,-1.7217 2.423927,-3.09828 0,-4.4049 z" /><ellipse
               style="fill:url(#radialGradient115);stroke:none;stroke-width:1.088;stroke-linecap:square;stroke-dasharray:none;stroke-opacity:0.424116"
               id="ellipse111"
               cx="73.620758"
               cy="368.37372"
               rx="2.9899821"
               ry="2.7052219" /><path
               style="fill:#b3b3b3;fill-opacity:1;stroke:none;stroke-width:1.7;stroke-linecap:square;stroke-dasharray:none;stroke-opacity:0.424116"
               d="m 67.4857,352.01354 c 3.534354,0.012 5.314236,0.40097 5.938427,2.16301 0.739155,-1.78553 2.641395,-2.18708 6.528335,-2.20234 -2.520738,-1.81696 -5.096516,-3.79511 -6.528336,-4.83725 -2.138165,1.60987 -3.896112,3.23646 -5.938426,4.87658 z"
               id="path113"
               sodipodi:nodetypes="ccccc" /></g><g
             id="g132"
             inkscape:label="pistol"
             transform="matrix(-0.50322378,-0.86415614,-0.86415614,0.50322378,400.78499,220.6004)"
             style="display:none"
             sodipodi:insensitive="true"><path
               id="path127"
               style="font-variation-settings:normal;opacity:1;fill:#666666;fill-opacity:1;stroke:#e6e6e6;stroke-width:0.3;stroke-linecap:square;stroke-linejoin:miter;stroke-miterlimit:4;stroke-dasharray:none;stroke-dashoffset:0;stroke-opacity:1"
               d="m 66.261606,346.57136 -0.792723,0.90512 c 0,0 -9.527636,-5.20533 -12.391618,-6.85175 -2.863977,-1.64641 -2.940535,-2.14403 -2.940535,-2.14403 l 0.303238,-0.36989 -2.717746,-1.74355 -3.87397,4.21409 0.15369,0.99557 c 0,0 2.43753,0.49422 0.399118,4.0401 0,0 -7.602016,8.33132 -7.973591,8.66205 -0.371585,0.33074 -0.236848,1.04346 -0.236848,1.04346 l 3.815248,3.46349 2.700251,0.82628 0.178947,-1.25795 6.194048,-7.14462 4.724221,2.98761 c 0,0 1.188021,0.77359 2.048777,-0.0924 0.86077,-0.86606 2.290531,-3.03765 3.205987,-2.42065 0.91546,0.617 5.796376,3.33215 5.796376,3.33215 l 0.53693,-0.14494 c 0,0 -0.03745,-0.56632 0.158554,-0.90727 0.196003,-0.34095 0.819967,-0.16344 0.819967,-0.16344 0,0 -0.275982,1.11133 1.242611,-1.37249 1.518607,-2.48384 0.633442,-3.62772 0.633442,-3.62772 l 0.402184,-0.85722 -0.652923,-0.28474 -0.303239,0.36989 -1.159006,-0.66628 0.127448,-0.38034 z m -11.774291,2.57589 c 0,0 0.575,0.39456 1.342872,0.90013 0.767875,0.50558 0.06191,1.51086 0.06191,1.51086 0,0 -0.675354,0.89498 -1.346084,1.50375 -0.670728,0.60878 -1.11458,0.32132 -1.11458,0.32132 0,0 -1.209246,-0.63077 -1.860183,-1.00498 -0.650936,-0.3742 -0.618235,-0.933 -0.618235,-0.933 0.139049,-1.74841 0.626683,-2.20581 0.626683,-2.20581 l 1.012884,-0.92518 -0.233647,1.02027 -0.124053,2.55913 0.285278,0.45249 0.698898,0.40178 0.262441,-0.2336 -0.05046,-0.41406 z" /><path
               style="font-variation-settings:normal;display:none;opacity:1;fill:none;fill-opacity:1;stroke:#000000;stroke-width:0.4;stroke-linecap:square;stroke-linejoin:miter;stroke-miterlimit:4;stroke-dasharray:none;stroke-dashoffset:0;stroke-opacity:1"
               d="m 44.830177,339.55386 19.396788,11.34305 1.385032,0.60376 -0.478438,0.94385 1.184943,0.61704 0.855804,-0.14956"
               id="path128" /><path
               style="font-variation-settings:normal;opacity:1;fill:#999999;fill-opacity:1;stroke:none;stroke-width:0.2;stroke-linecap:square;stroke-linejoin:miter;stroke-miterlimit:4;stroke-dasharray:none;stroke-dashoffset:0;stroke-opacity:1"
               d="m 74.638341,376.13943 c -0.917684,0.0278 -2.453617,1.82215 -2.453617,1.82215 l 4.066517,0.20786 0.911998,-1.80356 0.203869,0.003 -1.004629,1.99499 0.500558,0.0106 1.028917,-2.01283 h 0.166854 l -0.905541,2.01126 0.594729,-0.005 0.999567,-1.9996 0.173454,7.6e-4 -0.922743,2.00375 h 0.500554 l 0.973302,-2.0079 h 0.139044 l -0.900767,1.9973 0.675214,-0.01 0.917394,-1.99068 0.162853,0.002 -0.839177,1.9996 0.436793,0.002 1.054272,-2.30979 z"
               id="path130"
               transform="rotate(29.893243,126.86913,331.88696)"
               sodipodi:nodetypes="ccccccccccccccccccccccccc" /><ellipse
               style="font-variation-settings:normal;opacity:1;fill:#000000;fill-opacity:1;stroke:#000000;stroke-width:0.377888;stroke-linecap:square;stroke-linejoin:miter;stroke-miterlimit:4;stroke-dasharray:none;stroke-dashoffset:0;stroke-opacity:1"
               id="path129"
               cx="233.26128"
               cy="270.60324"
               transform="rotate(29.893242)"
               rx="0.53941995"
               ry="0.91483641" /><path
               style="font-variation-settings:normal;opacity:1;fill:#999999;fill-opacity:1;stroke:none;stroke-width:0.2;stroke-linecap:square;stroke-linejoin:miter;stroke-miterlimit:4;stroke-dasharray:none;stroke-dashoffset:0;stroke-opacity:1"
               d="m 53.69692,342.71045 0.663157,-1.01409 0.880844,0.16957 -2.731287,-1.55396 -0.996552,-0.10778 0.32547,0.1871 c 0,0 -0.174473,0.10821 -0.425455,0.46111 -0.250985,0.35289 0.136562,0.54361 0.136562,0.54361 z"
               id="path131" /><path
               style="font-variation-settings:normal;opacity:1;fill:none;fill-opacity:1;stroke:#4d4d4d;stroke-width:0.2;stroke-linecap:square;stroke-linejoin:miter;stroke-miterlimit:4;stroke-dasharray:none;stroke-dashoffset:0;stroke-opacity:1"
               d="m 44.855614,339.61829 19.463164,11.27949 1.286233,0.6033 -0.514712,0.97427 1.207815,0.73971 0.883837,-0.35381"
               id="path132" /><path
               style="font-variation-settings:normal;opacity:1;fill:#4d4d4d;fill-opacity:1;stroke:none;stroke-width:0.2;stroke-linecap:square;stroke-linejoin:miter;stroke-miterlimit:4;stroke-dasharray:none;stroke-dashoffset:0;stroke-opacity:1"
               d="m 56.591952,336.94909 1.798754,3.34352 c 0,0 -0.553215,0.51596 -1.376407,1.38995 -0.823177,0.87396 -0.571131,2.10944 -0.571131,2.10944 0,0 -1.859738,1.56115 -2.614212,2.53879 -0.75446,0.97762 -1.931935,2.80268 -1.931935,2.80268 l -3.150002,-3.67126 c 0,0 2.209125,-3.28486 3.239624,-4.29628 1.030498,-1.01141 4.605309,-4.21684 4.605309,-4.21684 z"
               id="path133"
               transform="translate(-11.416943,8.4971314)" /></g></g><g
           id="g127"
           inkscape:label="right_hand"
           transform="translate(-0.54880529,0.95466149)"><g
             id="g126"
             inkscape:label="sword"
             filter="url(#strokeFilter)"
             inkscape:transform-center-x="0.45944779"
             inkscape:transform-center-y="-24.597394"
             transform="rotate(27.090946,77.143054,295.79392)"
             style="display:inline"><path
               id="path123"
               style="fill:#999999;stroke-width:1.7;stroke-linecap:square;stroke-opacity:0.424116"
               d="m 68.844246,293.49448 5.191207,-5.34852 -0.471928,63.23834 h -4.719279 z"
               sodipodi:nodetypes="ccccc" /><path
               id="path124"
               style="fill:#cccccc;stroke-width:1.7;stroke-linecap:square;stroke-opacity:0.424116"
               d="m 78.912042,293.65179 -4.797934,-5.34852 -0.707892,63.55296 5.505826,-0.31462 z"
               sodipodi:nodetypes="ccccc" /><path
               id="path125"
               style="fill:#ffcc00;stroke:#aa4400;stroke-width:1.1;stroke-linecap:square;stroke-dasharray:none;stroke-opacity:1"
               d="m 62.766193,351.38419 c -1.938607,1.10473 -4.541266,2.08519 0,4.4049 h 8.022766 v 9.23613 a 4.6718473,4.2269092 0 0 0 -1.840197,3.34863 4.6718473,4.2269092 0 0 0 4.672066,4.22662 4.6718473,4.2269092 0 0 0 4.671549,-4.22662 4.6718473,4.2269092 0 0 0 -1.525488,-3.12332 v -9.46144 h 7.393347 c 3.802251,-1.7217 2.423927,-3.09828 0,-4.4049 z" /><ellipse
               style="fill:url(#radialGradient127);stroke:none;stroke-width:1.088;stroke-linecap:square;stroke-dasharray:none;stroke-opacity:0.424116"
               id="ellipse125"
               cx="73.620758"
               cy="368.37372"
               rx="2.9899821"
               ry="2.7052219" /><path
               style="fill:#b3b3b3;fill-opacity:1;stroke:none;stroke-width:1.7;stroke-linecap:square;stroke-dasharray:none;stroke-opacity:0.424116"
               d="m 67.4857,352.01354 c 3.534354,0.012 5.314236,0.40097 5.938427,2.16301 0.739155,-1.78553 2.641395,-2.18708 6.528335,-2.20234 -2.520738,-1.81696 -5.096516,-3.79511 -6.528336,-4.83725 -2.138165,1.60987 -3.896112,3.23646 -5.938426,4.87658 z"
               id="path126"
               sodipodi:nodetypes="ccccc" /></g><g
             id="g139"
             inkscape:label="pistol"
             style="display:none"
             sodipodi:insensitive="true"><path
               id="path134"
               style="font-variation-settings:normal;opacity:1;vector-effect:none;fill:#666666;fill-opacity:1;stroke:#e6e6e6;stroke-width:0.3;stroke-linecap:square;stroke-linejoin:miter;stroke-miterlimit:4;stroke-dasharray:none;stroke-dashoffset:0;stroke-opacity:1;-inkscape-stroke:none;stop-color:#000000;stop-opacity:1"
               d="m 66.261606,346.57136 -0.792723,0.90512 c 0,0 -9.527636,-5.20533 -12.391618,-6.85175 -2.863977,-1.64641 -2.940535,-2.14403 -2.940535,-2.14403 l 0.303238,-0.36989 -2.717746,-1.74355 -3.87397,4.21409 0.15369,0.99557 c 0,0 2.43753,0.49422 0.399118,4.0401 0,0 -7.602016,8.33132 -7.973591,8.66205 -0.371585,0.33074 -0.236848,1.04346 -0.236848,1.04346 l 3.815248,3.46349 2.700251,0.82628 0.178947,-1.25795 6.194048,-7.14462 4.724221,2.98761 c 0,0 1.188021,0.77359 2.048777,-0.0924 0.86077,-0.86606 2.290531,-3.03765 3.205987,-2.42065 0.91546,0.617 5.796376,3.33215 5.796376,3.33215 l 0.53693,-0.14494 c 0,0 -0.03745,-0.56632 0.158554,-0.90727 0.196003,-0.34095 0.819967,-0.16344 0.819967,-0.16344 0,0 -0.275982,1.11133 1.242611,-1.37249 1.518607,-2.48384 0.633442,-3.62772 0.633442,-3.62772 l 0.402184,-0.85722 -0.652923,-0.28474 -0.303239,0.36989 -1.159006,-0.66628 0.127448,-0.38034 z m -11.774291,2.57589 c 0,0 0.575,0.39456 1.342872,0.90013 0.767875,0.50558 0.06191,1.51086 0.06191,1.51086 0,0 -0.675354,0.89498 -1.346084,1.50375 -0.670728,0.60878 -1.11458,0.32132 -1.11458,0.32132 0,0 -1.209246,-0.63077 -1.860183,-1.00498 -0.650936,-0.3742 -0.618235,-0.933 -0.618235,-0.933 0.139049,-1.74841 0.626683,-2.20581 0.626683,-2.20581 l 1.012884,-0.92518 -0.233647,1.02027 -0.124053,2.55913 0.285278,0.45249 0.698898,0.40178 0.262441,-0.2336 -0.05046,-0.41406 z" /><path
               style="font-variation-settings:normal;display:none;opacity:1;fill:none;fill-opacity:1;stroke:#000000;stroke-width:0.4;stroke-linecap:square;stroke-linejoin:miter;stroke-miterlimit:4;stroke-dasharray:none;stroke-dashoffset:0;stroke-opacity:1"
               d="m 44.830177,339.55386 19.396788,11.34305 1.385032,0.60376 -0.478438,0.94385 1.184943,0.61704 0.855804,-0.14956"
               id="path135" /><path
               style="font-variation-settings:normal;opacity:1;fill:#999999;fill-opacity:1;stroke:none;stroke-width:0.2;stroke-linecap:square;stroke-linejoin:miter;stroke-miterlimit:4;stroke-dasharray:none;stroke-dashoffset:0;stroke-opacity:1"
               d="m 74.638341,376.13943 c -0.917684,0.0278 -2.453617,1.82215 -2.453617,1.82215 l 4.066517,0.20786 0.911998,-1.80356 0.203869,0.003 -1.004629,1.99499 0.500558,0.0106 1.028917,-2.01283 h 0.166854 l -0.905541,2.01126 0.594729,-0.005 0.999567,-1.9996 0.173454,7.6e-4 -0.922743,2.00375 h 0.500554 l 0.973302,-2.0079 h 0.139044 l -0.900767,1.9973 0.675214,-0.01 0.917394,-1.99068 0.162853,0.002 -0.839177,1.9996 0.436793,0.002 1.054272,-2.30979 z"
               id="path136"
               transform="rotate(29.893243,126.86913,331.88696)"
               sodipodi:nodetypes="ccccccccccccccccccccccccc" /><ellipse
               style="font-variation-settings:normal;opacity:1;fill:#000000;fill-opacity:1;stroke:#000000;stroke-width:0.377888;stroke-linecap:square;stroke-linejoin:miter;stroke-miterlimit:4;stroke-dasharray:none;stroke-dashoffset:0;stroke-opacity:1"
               id="ellipse136"
               cx="233.26128"
               cy="270.60324"
               transform="rotate(29.893242)"
               rx="0.53941995"
               ry="0.91483641" /><path
               style="font-variation-settings:normal;opacity:1;fill:#999999;fill-opacity:1;stroke:none;stroke-width:0.2;stroke-linecap:square;stroke-linejoin:miter;stroke-miterlimit:4;stroke-dasharray:none;stroke-dashoffset:0;stroke-opacity:1"
               d="m 53.69692,342.71045 0.663157,-1.01409 0.880844,0.16957 -2.731287,-1.55396 -0.996552,-0.10778 0.32547,0.1871 c 0,0 -0.174473,0.10821 -0.425455,0.46111 -0.250985,0.35289 0.136562,0.54361 0.136562,0.54361 z"
               id="path137" /><path
               style="font-variation-settings:normal;opacity:1;fill:none;fill-opacity:1;stroke:#4d4d4d;stroke-width:0.2;stroke-linecap:square;stroke-linejoin:miter;stroke-miterlimit:4;stroke-dasharray:none;stroke-dashoffset:0;stroke-opacity:1"
               d="m 44.855614,339.61829 19.463164,11.27949 1.286233,0.6033 -0.514712,0.97427 1.207815,0.73971 0.883837,-0.35381"
               id="path138" /><path
               style="font-variation-settings:normal;opacity:1;fill:#4d4d4d;fill-opacity:1;stroke:none;stroke-width:0.2;stroke-linecap:square;stroke-linejoin:miter;stroke-miterlimit:4;stroke-dasharray:none;stroke-dashoffset:0;stroke-opacity:1"
               d="m 56.591952,336.94909 1.798754,3.34352 c 0,0 -0.553215,0.51596 -1.376407,1.38995 -0.823177,0.87396 -0.571131,2.10944 -0.571131,2.10944 0,0 -1.859738,1.56115 -2.614212,2.53879 -0.75446,0.97762 -1.931935,2.80268 -1.931935,2.80268 l -3.150002,-3.67126 c 0,0 2.209125,-3.28486 3.239624,-4.29628 1.030498,-1.01141 4.605309,-4.21684 4.605309,-4.21684 z"
               id="path139"
               transform="translate(-11.416943,8.4971314)" /></g></g></g><g
         id="g108"
         inkscape:label="gloves"
         transform="translate(-6.3500004,-39.158336)"><g
           id="g9"
           inkscape:label="left_glove"><path
             id="path22"
             style="fill:#333333;fill-opacity:1;stroke:none;stroke-width:1.6;stroke-linecap:square;stroke-dasharray:none"
             inkscape:label="left_glove"
             d="M 103.13014 416.2159 C 102.07593 416.2357 100.98666 416.40864 100.04867 416.8696 C 96.511529 418.60791 93.127252 421.90343 95.32958 423.79114 C 97.531909 425.67884 100.04897 428.51056 102.88054 427.88133 C 104.42849 427.53734 107.00646 425.7844 109.02952 424.2645 L 108.89619 420.07664 L 107.48646 416.8355 C 107.11064 416.72109 105.21252 416.17677 103.13014 416.2159 z " /></g><g
           id="g8"
           inkscape:label="right_glove"><path
             id="path23"
             style="display:inline;fill:#333333;fill-opacity:1;stroke:none;stroke-width:1.6;stroke-linecap:square;stroke-dasharray:none"
             inkscape:label="right_glove"
             d="m 69.512552,423.97563 c -1.075092,0.29946 -3.046838,1.12306 -4.55166,3.38739 -0.908799,1.36749 -1.075717,2.9796 -1.015442,4.25038 l 2.439128,3.18947 7.55096,1.57303 c 0,0 4.089673,-0.94386 4.089673,-5.34851 0,-4.40466 -2.123612,-6.37088 -4.247286,-5.42705 -1.420116,0.63115 -3.346273,-0.81633 -4.265373,-1.62471 z" /></g></g><path
         style="fill:#803300;fill-opacity:1;stroke:none;stroke-width:1.6;stroke-linecap:square;stroke-dasharray:none"
         d="m 138.3757,409.56539 c 0,0 -7.56394,-6.4516 -6.4516,-9.34371 1.11235,-2.8921 3.78197,-9.78863 9.56617,-10.01109 5.78419,-0.22249 24.02665,0.66739 28.47603,0.44492 4.44938,-0.22246 15.79529,-2.66962 16.68517,0.44495 0.88987,3.11457 6.89654,15.57282 0,17.79752 -6.89654,2.2247 -14.68295,4.2269 -14.68295,4.2269 l -34.03776,-2.66962 z"
         id="path29"
         inkscape:label="dwarf_butt" /><path
         style="display:inline;fill:#803300;fill-opacity:1;stroke:none;stroke-width:1.6;stroke-linecap:square;stroke-dasharray:none"
         d="m 141.71274,385.31628 -9.12123,-29.36592 c 0,0 0,-6.67406 2.22469,-9.78863 2.22469,-3.11457 16.90764,-9.12122 21.57949,-9.12122 4.67185,0 26.25134,3.11454 29.81084,4.00444 3.55951,0.88987 3.14348,15.58862 3.14348,19.59307 0,4.00444 -7.19535,22.12313 -7.19535,22.12313 l 1.60471,6.55957 -29.81084,0.88987 z"
         id="path34"
         inkscape:label="dwarf_torso"
         sodipodi:nodetypes="ccsssscccc" /><g
         id="g5"
         inkscape:label="hammer_arm_bicep"><path
           style="font-variation-settings:normal;opacity:1;vector-effect:none;fill:#2b1100;fill-opacity:1;stroke:none;stroke-width:1.6;stroke-linecap:square;stroke-linejoin:miter;stroke-miterlimit:4;stroke-dasharray:none;stroke-dashoffset:0;stroke-opacity:1;-inkscape-stroke:none;stop-color:#000000;stop-opacity:1"
           d="m 185.2802,341.3828 c 0,0 15.12841,4.80081 16.86418,7.1248 1.73576,2.32395 6.56583,10.21652 6.56583,10.21652 0,0 2.52721,9.31439 -2.49536,8.9768 -5.02255,-0.3376 -20.46229,-9.88928 -20.46229,-9.88928 0,0 -8.21979,-9.06638 -7.13036,-11.20044 1.08943,-2.13408 6.658,-5.2284 6.658,-5.2284 z"
           id="path42"
           inkscape:label="hammer_arm_bicep_path"
           inkscape:transform-center-x="-9.1177169"
           inkscape:transform-center-y="8.9377547" /></g><path
         style="font-variation-settings:normal;display:inline;opacity:1;vector-effect:none;fill:#2b1100;fill-opacity:1;stroke:none;stroke-width:1.6;stroke-linecap:square;stroke-linejoin:miter;stroke-miterlimit:4;stroke-dasharray:none;stroke-dashoffset:0;stroke-opacity:1;-inkscape-stroke:none;stop-color:#000000;stop-opacity:1"
         d="m 134.49948,345.76589 c -3.17248,1.67722 -5.85144,3.885 -10.69703,8.33739 -3.06635,3.32721 -3.30857,11.84489 -2.20234,14.31514 0.96442,2.15358 2.67427,9.59589 2.67427,9.59589 l 2.51694,3.61811 1.41578,2.35963 5.97776,2.04503 c 0,0 9.92882,1.02494 9.12394,-1.88771 -2.58843,-9.36686 -6.7643,-4.71929 -6.7643,-4.71929 l -2.35963,-4.71928 c 0,0 -2.04503,-7.07891 -1.10117,-9.28124 1.05889,-2.47076 4.40466,-1.57309 6.76429,-8.33739 2.6873,-7.70363 1.5731,-9.59588 0.47193,-10.53973 -1.10116,-0.94385 -5.82044,-0.78655 -5.82044,-0.78655 z"
         id="path56"
         inkscape:label="dwarf_right_arm"
         sodipodi:nodetypes="ccsccccsccsssc" /><path
         style="display:inline;fill:#333333;fill-opacity:1;stroke:none;stroke-width:1.6;stroke-linecap:square;stroke-dasharray:none"
         d="m 123.91522,383.5365 19.57727,0.22249 v -1.11236 h 4.67185 v -2.00221 h 41.15676 v 3.55949 c 0,0 -14.90542,4.67186 -19.13233,11.34592 -4.22692,6.67409 4.44937,13.79307 4.44937,13.79307 v 5.33927 l -7.119,-0.22246 c 0,0 -3.33704,-2.66965 -8.67629,-2.66965 -5.33926,0 -8.45382,2.66965 -8.45382,2.66965 h -8.23135 v -4.89432 c 0,0 10.23357,-2.89211 9.34369,-9.56617 -0.88987,-6.67409 -2.44716,-4.00444 -2.44716,-4.00444 h -4.89432 v -0.66741 c -10.51049,-2.38385 -12.41346,-2.9742 -20.24467,-11.79087 z"
         id="path28"
         sodipodi:nodetypes="cccccccscccscccscccc"
         inkscape:label="anvil" /><g
         id="g96"
         inkscape:label="dwarf_right_leg"><path
           style="fill:#2b1100;fill-opacity:1;stroke:none;stroke-width:1.43575;stroke-linecap:square;stroke-dasharray:none"
           d="m 132.59151,420.82881 -0.88988,7.52382 -6.00666,3.04537 c 0,0 -2.44716,-3.58276 -6.22913,0 -3.78197,3.58279 -2.00222,9.85264 -2.00222,9.85264 0,0 8.00888,2.50794 10.23357,1.97052 2.22469,-0.5374 14.90542,-5.01587 16.68517,-6.62813 1.77976,-1.61224 2.22469,-5.91158 2.22469,-5.91158 l -1.77975,-10.39005 -7.56394,-3.04538 z"
           id="path32"
           inkscape:label="dwarf_boot" /><path
           style="fill:#aa4400;fill-opacity:1;stroke:none;stroke-width:1.43575;stroke-linecap:square;stroke-dasharray:none"
           d="m 131.70163,426.20297 c -1.55728,-5.73244 -2.44716,-7.88211 -2.44716,-10.56918 0,-2.68709 3.55951,-12.3606 4.00445,-14.33112 0.44493,-1.97053 2.89209,-7.16555 5.33925,-6.80728 2.44716,0.35828 9.12123,-1.43311 10.45604,0.71657 1.33482,2.14966 3.33704,11.82316 2.44716,13.79369 -0.88987,1.97053 -3.5595,12.898 -4.00444,14.33111 -0.44494,1.43311 -1.77975,3.58276 -1.77975,3.58276 0,0 -4.67185,-1.61224 -8.23135,-1.97052 -3.55951,-0.35827 -5.7842,1.25397 -5.7842,1.25397 z"
           id="path30"
           inkscape:label="dwarf_right_pant" /></g><g
         id="g95"
         inkscape:label="dwarf_left_leg"><path
           style="fill:#2b1100;fill-opacity:1;stroke:none;stroke-width:1.64494;stroke-linecap:square;stroke-dasharray:none"
           d="m 172.82142,420.1046 -1.43599,12.02141 -1.19667,5.46429 2.39333,1.52999 h 3.59 l 6.90813,4.64306 c 0,0 4.99348,2.02021 7.86548,1.80165 2.87199,-0.21856 7.65864,-3.93429 7.65864,-3.93429 0,0 6.22266,-6.33856 1.19667,-6.55713 -5.02599,-0.21857 -8.61598,0 -8.61598,0 l -4.96098,-5.13326 0.47867,-8.30571 -2.63266,-5.2457 h -11.0093 z"
           id="path33"
           sodipodi:nodetypes="ccccccscscccccc"
           inkscape:label="dwarf_boot" /><path
           style="fill:#aa4400;fill-opacity:1;stroke:none;stroke-width:1.49869;stroke-linecap:square;stroke-dasharray:none"
           d="m 172.63593,394.91816 -2.00222,10.54019 v 6.6364 c 0,3.90379 1.77975,13.8584 1.77975,14.63915 0,0.78075 3.33703,-2.53746 6.4516,-2.34226 3.11456,0.19519 8.23135,2.73263 8.23135,2.73263 0,0 0.66741,-4.29415 1.33481,-6.63641 0.66741,-2.34226 0.66741,-9.36904 0.66741,-10.345 0,-0.97594 -1.77975,-15.02952 -1.77975,-15.02952 0,0 -3.55951,-3.123 -5.7842,-3.123 -2.22469,0 -8.89875,2.92782 -8.89875,2.92782 z"
           id="path31"
           inkscape:label="dwarf_left_pant"
           sodipodi:nodetypes="ccssscsscsc" /></g><g
         id="g59"
         inkscape:label="hammer_arm"
         inkscape:transform-center-x="29.11854"
         inkscape:transform-center-y="10.188876"
         transform="rotate(-2.7059602,261.37141,384.22959)"
         style="display:inline"><path
           id="rect58"
           style="opacity:1;vector-effect:none;fill:#999999;stroke-width:1.6;stroke-linecap:square"
           d="m 152.39502,360.39553 -0.53252,1.59086 c 1.32354,1.10653 0.95569,2.52126 -0.87118,2.60261 l -1.75596,5.24584 c 1.07947,0.4996 0.5455,2.1609 -0.55888,1.66962 l -0.47595,1.42187 c 1.86064,4.78217 4.48062,3.18828 7.011,2.34681 l 0.43918,-1.31202 c -1.19948,-0.45921 -0.35004,-2.17315 0.62105,-1.72015 l 0.43771,-1.44286 17.30428,5.79235 0.94875,-2.8344 -17.30426,-5.79235 0.43674,-1.30472 c -1.2793,-0.74037 -1.02711,-2.58489 0.97467,-2.6688 l 0.33637,-1.24783 z"
           inkscape:label="hammer"
           inkscape:transform-center-x="11.317141"
           inkscape:transform-center-y="-5.5949045"
           sodipodi:nodetypes="ccccccccccccccccc" /><g
           id="g4"
           inkscape:label="hammer_rivets"><circle
             style="font-variation-settings:normal;opacity:1;vector-effect:none;fill:#333333;fill-opacity:1;stroke:none;stroke-width:1.6;stroke-linecap:square;stroke-linejoin:miter;stroke-miterlimit:4;stroke-dasharray:none;stroke-dashoffset:0;stroke-opacity:1;-inkscape-stroke:none"
             id="path59"
             cx="151.30672"
             cy="372.74677"
             r="0.88987589"
             transform="rotate(2.7059602,261.3712,384.22975)" /><circle
             style="font-variation-settings:normal;opacity:1;vector-effect:none;fill:#333333;fill-opacity:1;stroke:none;stroke-width:1.6;stroke-linecap:square;stroke-linejoin:miter;stroke-miterlimit:4;stroke-dasharray:none;stroke-dashoffset:0;stroke-opacity:1;-inkscape-stroke:none"
             id="circle59"
             cx="154.42128"
             cy="373.72006"
             r="0.88987589"
             transform="rotate(2.7059602,261.3712,384.22975)" /></g><path
           style="font-variation-settings:normal;opacity:1;vector-effect:none;fill:#2b1100;fill-opacity:1;stroke:none;stroke-width:1.6;stroke-linecap:square;stroke-linejoin:miter;stroke-miterlimit:4;stroke-dasharray:none;stroke-dashoffset:0;stroke-opacity:1;-inkscape-stroke:none;stop-color:#000000;stop-opacity:1"
           d="m 201.32767,358.66216 -21.57486,7.01759 c 0,0 -6.63619,1.09414 -8.91592,4.1847 -2.27973,3.09057 -3.03369,8.10728 -3.03369,8.10728 0,0 5.63016,1.39864 6.90386,0.80082 1.27371,-0.59782 4.85056,-5.22974 4.85056,-5.22974 l 13.26457,-1.87374 10.18181,-4.46797 c 0,0 10.49633,-4.46018 6.79234,-7.38457 -3.70399,-2.92439 -8.46867,-1.15437 -8.46867,-1.15437 z"
           id="path43"
           inkscape:transform-center-x="15.2721"
           inkscape:transform-center-y="5.6003175"
           inkscape:label="hammer_arm_path" /></g><g
         id="g3"
         inkscape:label="nametag"><rect
           style="font-variation-settings:normal;display:inline;opacity:1;fill:#ffe6d5;fill-opacity:1;stroke:#800000;stroke-width:0.504984;stroke-linecap:square;stroke-linejoin:miter;stroke-miterlimit:4;stroke-dasharray:none;stroke-dashoffset:0;stroke-opacity:1"
           id="rect94"
           width="10.185054"
           height="3.4251368"
           x="171.54868"
           y="354.93539" /><text
           xml:space="preserve"
           style="font-style:normal;font-variant:normal;font-weight:normal;font-stretch:normal;font-size:2.20425px;line-height:0;font-family:'Corsiva Hebrew';-inkscape-font-specification:'Corsiva Hebrew';letter-spacing:0.177271px;display:inline;opacity:1;fill:#000000;fill-opacity:1;stroke:none;stroke-width:0.0833101;stroke-linecap:square;stroke-linejoin:miter;stroke-miterlimit:4;stroke-dasharray:none;stroke-dashoffset:0;stroke-opacity:1"
           x="182.12241"
           y="337.43634"
           id="text94"
           transform="scale(0.94380081,1.0595456)"><tspan
             sodipodi:role="line"
             id="tspan94"
             style="font-style:normal;font-variant:normal;font-weight:normal;font-stretch:normal;font-family:'Corsiva Hebrew';-inkscape-font-specification:'Corsiva Hebrew';letter-spacing:0.177271px;fill:#000000;stroke:none;stroke-width:0.0833101"
             x="182.12241"
             y="337.43634">Rentals</tspan></text></g><g
         id="g63"
         inkscape:label="dwarf_head"
         style="display:inline"><path
           style="fill:#2b1100;fill-opacity:1;stroke:none;stroke-width:1.6;stroke-linecap:square;stroke-dasharray:none"
           d="m 161.73495,317.24076 c 0,0 -2.66963,-2.2247 -8.45383,1.77974 -5.78419,4.00445 -6.67407,15.57285 -5.78419,17.13011 0.88988,1.55728 2.22469,9.78865 8.45382,10.67853 6.22913,0.88987 13.57061,0.66741 15.7953,-1.55729 2.22469,-2.22469 5.78419,-7.34147 5.56172,-10.45604 -0.22247,-3.11457 -4.44938,-14.23802 -6.00666,-15.1279 -1.55728,-0.88987 -9.56616,-2.44715 -9.56616,-2.44715 z"
           id="path35"
           inkscape:label="head" /><path
           style="fill:#aa0000;fill-opacity:1;stroke:none;stroke-width:1.6;stroke-linecap:square;stroke-dasharray:none"
           d="m 149.61039,324.19131 3.8932,9.56615 c 0,0 3.11457,1.11235 4.22691,0.66742 1.11235,-0.44495 2.22469,2.44716 3.55951,1.55729 1.33481,-0.8899 4.67184,-2.66965 6.00666,-2.44716 1.33481,0.22246 6.22913,-8.12014 7.11901,-7.67519 0.88988,0.44495 3.11456,11.45714 5.11678,13.01443 2.00222,1.55728 4.67185,8.67629 4.67185,9.56617 0,0.88987 -1.11234,8.45383 -1.11234,8.45383 -0.22247,-2.52132 -1.40898,-8.23136 -2.2247,-8.6763 -2.421,1.28681 -0.18871,10.78642 -0.22246,14.46049 0.14688,-7.39268 -5.17317,-17.19212 -8.00889,-14.4605 -2.14386,8.13029 -0.81073,10.5789 -1.11234,17.13012 -1.79212,-3.91787 -2.51102,-7.33939 -5.11679,-5.56173 -1.48916,2.15053 -1.52491,4.30107 -2.22469,6.4516 -0.32149,-2.63499 0.10881,-5.42035 -1.55728,-7.78642 -2.01732,0.59193 -3.58655,3.42428 -5.33926,5.33926 0.32846,-2.13461 1.8277,-3.68383 0,-6.89652 -3.10249,1.6415 -3.92778,6.35532 -8.00888,7.56394 1.71543,-2.4973 6.42935,-11.19525 1.11234,-8.45384 2.07638,-4.01014 -4.52353,-0.42841 -6.22913,0.66741 1.33483,-1.63143 1.3348,-3.11455 0,-4.44936 -1.0204,-2.2039 -3.52685,0.0503 -5.33925,0.22246 2.14962,-2.22438 5.78504,-4.94403 3.78197,-5.78419 -0.0838,-4.42522 -4.51373,-0.32029 -6.89653,2.00222 0.88262,-4.55523 5.99024,-6.77111 10.23357,-10.0111 -1.26066,-0.99092 -2.52131,0.20811 -3.78197,0.88987 0.73887,-2.19719 1.58575,-4.30797 3.78197,-5.33927 z"
           id="path36"
           sodipodi:nodetypes="ccssssssccccccccccccccccccccc"
           inkscape:label="beard" /><path
           style="fill:#ffcc00;fill-opacity:1;stroke:none;stroke-width:1.6;stroke-linecap:square;stroke-dasharray:none"
           d="m 155.37386,330.95633 c 1.36599,-0.16141 2.56193,-1.76821 4.11568,-0.3337 v 0.55618 c -1.46031,1.07529 -2.74845,-0.0877 -4.11568,-0.22248 z"
           id="path37"
           sodipodi:nodetypes="cccc"
           inkscape:label="eye" /><path
           style="fill:#ffcc00;fill-opacity:1;stroke:none;stroke-width:1.6;stroke-linecap:square;stroke-dasharray:none"
           d="m 167.26074,330.81251 c -1.36599,-0.16141 -2.56193,-1.76821 -4.11568,-0.3337 v 0.55618 c 1.46031,1.07529 2.74845,-0.0877 4.11568,-0.22248 z"
           id="path38"
           sodipodi:nodetypes="cccc"
           inkscape:label="eye" /><ellipse
           style="fill:#2b1100;fill-opacity:1;stroke:none;stroke-width:1.6;stroke-linecap:square;stroke-dasharray:none"
           id="path39"
           cx="160.90776"
           cy="333.85669"
           rx="2.4579582"
           ry="2.2809851"
           inkscape:label="nose" /><path
           id="path40"
           style="fill:#999999;stroke-width:1.6;stroke-linecap:square"
           d="m 174.86061,324.69345 c 0,7.12624 -6.6303,0.77864 -13.84869,0.77864 -7.21839,0 -12.29141,6.3476 -12.29141,-0.77864 0,-7.12624 5.85166,-12.9032 13.07005,-12.9032 7.21839,0 13.07005,5.77696 13.07005,12.9032 z"
           sodipodi:nodetypes="sssss"
           inkscape:label="helmet" /><path
           style="font-variation-settings:normal;opacity:1;vector-effect:none;fill:#e9c6af;fill-opacity:1;stroke:none;stroke-width:1.6;stroke-linecap:square;stroke-linejoin:miter;stroke-miterlimit:4;stroke-dasharray:none;stroke-dashoffset:0;stroke-opacity:1;-inkscape-stroke:none"
           d="m 150.94519,320.68903 c -18.68739,-4.7831 -12.68072,-18.90987 -12.68072,-18.90987 1.27226,12.58626 7.83364,11.63406 14.68295,14.46048 0.37077,1.92807 -0.29662,3.4112 -2.00223,4.44939 z"
           id="path57"
           sodipodi:nodetypes="cccc"
           inkscape:label="horn" /><path
           id="rect41"
           style="fill:#666666;stroke-width:1.6;stroke-linecap:square"
           d="m 159.95519,311.51218 h 2.00222 c -0.0588,4.78308 -0.73041,14.29364 0,19.07672 -0.63033,-0.81574 -1.26066,-0.8157 -1.89099,0 -0.62052,-4.78308 -0.14823,-14.29364 -0.11123,-19.07672 z"
           sodipodi:nodetypes="ccccc"
           inkscape:label="helmet stripe" /><path
           style="font-variation-settings:normal;opacity:1;vector-effect:none;fill:#e9c6af;fill-opacity:1;stroke:none;stroke-width:1.6;stroke-linecap:square;stroke-linejoin:miter;stroke-miterlimit:4;stroke-dasharray:none;stroke-dashoffset:0;stroke-opacity:1;-inkscape-stroke:none"
           d="m 172.03799,320.80026 c 18.68739,-4.7831 12.68072,-18.90987 12.68072,-18.90987 -1.27226,12.58626 -7.83364,11.63406 -14.68295,14.46048 -0.37077,1.92807 0.29662,3.4112 2.00223,4.44939 z"
           id="path58"
           sodipodi:nodetypes="cccc"
           inkscape:label="horn" /><path
           style="font-variation-settings:normal;opacity:1;vector-effect:none;fill:#aa0000;fill-opacity:1;stroke:none;stroke-width:1.6;stroke-linecap:square;stroke-linejoin:miter;stroke-miterlimit:4;stroke-dasharray:none;stroke-dashoffset:0;stroke-opacity:1;-inkscape-stroke:none;stop-color:#000000;stop-opacity:1"
           d="m 154.00415,329.81026 -0.61179,-1.44605 1.11234,0.55618 0.16685,-0.83428 0.55618,0.2781 0.94549,-0.2781 v 0.61179 l 1.33481,-1.50167 v 1.2236 l 1.05673,-0.72303 0.55617,1.0011 -0.88987,0.55618 -1.22358,-0.27807 -1.33482,0.77864 z"
           id="path60"
           inkscape:label="eyerow" /><path
           style="font-variation-settings:normal;opacity:1;vector-effect:none;fill:#aa0000;fill-opacity:1;stroke:none;stroke-width:1.6;stroke-linecap:square;stroke-linejoin:miter;stroke-miterlimit:4;stroke-dasharray:none;stroke-dashoffset:0;stroke-opacity:1;-inkscape-stroke:none"
           d="m 162.79167,329.11584 0.44494,-1.72413 0.44494,0.72303 0.6674,-0.66741 0.50056,0.77864 0.94549,-0.6118 -0.16685,1.05675 2.61401,-0.72303 -0.77864,1.00111 h 1.66852 l -1.2792,0.66741 -1.50166,-0.33372 h -1.33482 l -0.83426,-0.55616 z"
           id="path61"
           inkscape:label="eyebrow" /></g><g
         id="g91"
         inkscape:label="dwarf_payment_head"
         style="display:inline"><path
           style="fill:#2b1100;fill-opacity:1;stroke:none;stroke-width:1.6;stroke-linecap:square;stroke-dasharray:none"
           d="m 161.73495,317.24076 c 0,0 -2.66963,-2.2247 -8.45383,1.77974 -5.78419,4.00445 -4.56061,17.13013 -3.67073,18.68739 0.88988,1.55728 0.44493,4.7831 6.67406,5.67298 6.22913,0.88987 9.56617,1.00111 11.79086,-1.22359 2.22469,-2.22469 6.67407,-6.45159 6.4516,-9.56616 -0.22247,-3.11457 -1.66852,-12.01333 -3.2258,-12.90321 -1.55728,-0.88987 -9.56616,-2.44715 -9.56616,-2.44715 z"
           id="path82"
           inkscape:label="head"
           sodipodi:nodetypes="cssssssc" /><path
           style="fill:#aa0000;fill-opacity:1;stroke:none;stroke-width:1.6;stroke-linecap:square;stroke-dasharray:none"
           d="m 173.8595,325.30366 -3.33703,8.67627 c 0,0 -2.8921,-4.67184 -4.00444,-5.11677 -1.11235,-0.44495 -2.78086,5.11679 -4.11568,4.22692 -1.33481,-0.8899 -5.66695,0.96148 -7.00777,0.77864 -2.44716,-0.33371 -5.33926,1.33479 -6.22914,1.77974 -0.88988,0.44495 -1.35921,3.32882 -1.99579,5.78418 -0.77864,3.00333 -0.55617,9.01 -0.55617,9.89988 0,0.88987 2.22468,8.56507 2.22468,8.56507 0.22247,-2.52132 -0.37077,-4.11569 0.44495,-4.56063 2.421,1.28681 1.52352,3.11124 5.22801,6.45161 -0.81428,-5.8354 -2.17156,-12.96521 0.66421,-10.23359 2.14386,8.13029 -2.08137,11.69124 -1.77976,18.24246 1.79212,-3.91787 3.17843,-10.67642 5.7842,-8.89876 1.48916,2.15053 -0.47731,4.52354 0.22247,6.67407 0.32149,-2.63499 1.89341,-5.64282 3.5595,-8.00889 2.01732,0.59193 1.35865,7.42872 3.11136,9.3437 -0.32846,-2.13461 -1.71647,-7.68827 0.11123,-10.90096 3.10249,1.6415 3.92778,6.35532 8.00888,7.56394 -1.71543,-2.4973 -6.42935,-11.19525 -1.11234,-8.45384 -2.07638,-4.01014 4.52353,-0.42841 6.22913,0.66741 -1.33483,-1.63143 -1.3348,-3.11455 0,-4.44936 1.0204,-2.2039 3.52685,0.0503 5.33925,0.22246 -2.14962,-2.22438 -5.78504,-4.94403 -3.78197,-5.78419 0.0838,-4.42522 4.51373,-0.32029 6.89653,2.00222 -0.88262,-4.55523 -5.99024,-6.77111 -10.23357,-10.0111 1.26066,-0.99092 4.96847,-0.0144 6.22913,0.6674 -0.73887,-2.19719 -1.14081,-3.08439 -4.67185,-5.56174 -6.1672,0.58079 -4.44892,-5.83645 -5.22802,-9.56614 z"
           id="path83"
           sodipodi:nodetypes="ccssssssccccccccccccccccccccc"
           inkscape:label="beard" /><path
           style="fill:#ffcc00;fill-opacity:1;stroke:none;stroke-width:1.6;stroke-linecap:square;stroke-dasharray:none"
           d="m 155.13618,330.70128 c -1.36599,-0.16141 -2.56193,-1.76821 -4.11568,-0.3337 v 0.55618 c 1.46031,1.07529 2.74845,-0.0877 4.11568,-0.22248 z"
           id="path85"
           sodipodi:nodetypes="cccc"
           inkscape:label="eye" /><ellipse
           style="fill:#2b1100;fill-opacity:1;stroke:none;stroke-width:1.6;stroke-linecap:square;stroke-dasharray:none"
           id="ellipse85"
           cx="148.00455"
           cy="333.18927"
           rx="2.4579582"
           ry="2.2809851"
           inkscape:label="nose" /><path
           style="font-variation-settings:normal;display:inline;opacity:1;vector-effect:none;fill:#e9c6af;fill-opacity:1;stroke:none;stroke-width:1.6;stroke-linecap:square;stroke-linejoin:miter;stroke-miterlimit:4;stroke-dasharray:none;stroke-dashoffset:0;stroke-opacity:1;-inkscape-stroke:none"
           d="m 158.28666,320.9115 c -8.56505,-6.22915 -1.3348,-18.6874 -1.3348,-18.6874 -1.73107,10.58404 -0.62018,11.18912 3.33703,14.23801 1.32115,2.40326 1.10718,4.1131 -2.00223,4.44939 z"
           id="path92"
           sodipodi:nodetypes="cccc"
           inkscape:label="horn" /><path
           id="path86"
           style="fill:#999999;stroke-width:1.6;stroke-linecap:square"
           d="m 174.86061,324.69345 c 1.77975,15.35759 -7.65244,6.70626 -13.84869,3.00333 -6.32851,-3.78197 -12.54066,-0.74294 -11.51277,-3.33703 2.95371,-7.45428 5.07302,-12.5695 12.29141,-12.5695 7.21839,0 12.2497,5.82434 13.07005,12.9032 z"
           sodipodi:nodetypes="sssss"
           inkscape:label="helmet" /><path
           id="path88"
           style="fill:#666666;stroke-width:1.6;stroke-linecap:square"
           d="m 159.95519,311.51218 h 2.00222 c -3.32389,1.56595 -14.03163,9.69999 -11.34592,17.74191 -0.63033,-0.81574 -1.26066,-2.15052 -1.89099,-1.33482 -0.87585,-4.44729 4.0409,-16.13693 11.23469,-16.40709 z"
           sodipodi:nodetypes="ccccc"
           inkscape:label="helmet stripe" /><path
           style="font-variation-settings:normal;display:inline;opacity:1;vector-effect:none;fill:#e9c6af;fill-opacity:1;stroke:none;stroke-width:1.6;stroke-linecap:square;stroke-linejoin:miter;stroke-miterlimit:4;stroke-dasharray:none;stroke-dashoffset:0;stroke-opacity:1;-inkscape-stroke:none"
           d="m 161.40123,320.9115 c -8.56505,-6.22915 -1.3348,-18.6874 -1.3348,-18.6874 -1.73107,10.58404 -0.62018,11.18912 3.33703,14.23801 1.32115,2.40326 1.10718,4.1131 -2.00223,4.44939 z"
           id="path87"
           sodipodi:nodetypes="cccc"
           inkscape:label="horn" /><path
           style="font-variation-settings:normal;opacity:1;vector-effect:none;fill:#aa0000;fill-opacity:1;stroke:none;stroke-width:1.6;stroke-linecap:square;stroke-linejoin:miter;stroke-miterlimit:4;stroke-dasharray:none;stroke-dashoffset:0;stroke-opacity:1;-inkscape-stroke:none"
           d="m 150.11094,328.11473 0.44494,-1.72413 0.44494,0.72303 0.6674,-0.66741 0.50056,0.77864 0.94549,-0.6118 -0.16685,1.05675 2.61401,-0.72303 -0.77864,1.00111 h 1.66852 l -1.2792,0.66741 -1.50166,-0.33372 h -1.33482 l -0.83426,-0.55616 z"
           id="path91"
           inkscape:label="eyebrow" /></g><g
         id="g94"
         inkscape:label="dwarf_payment_arm"
         style="display:inline"><path
           id="rect93"
           style="opacity:1;fill:#999999;stroke:#666666;stroke-width:1.1;stroke-linecap:square"
           d="m 80.101508,353.57718 23.641452,3.46999 -0.30668,5.7336 -23.759073,-1.27081 z"
           sodipodi:nodetypes="ccccc" /><path
           style="font-variation-settings:normal;opacity:1;fill:#333333;fill-opacity:1;stroke:#333333;stroke-width:2.1;stroke-linecap:square;stroke-linejoin:miter;stroke-miterlimit:4;stroke-dasharray:none;stroke-dashoffset:0;stroke-opacity:1"
           d="m 80.26864,358.15109 22.84196,2.95462 v 0"
           id="path94" /><path
           style="font-variation-settings:normal;display:inline;opacity:1;vector-effect:none;fill:#2b1100;fill-opacity:1;stroke:none;stroke-width:1.6;stroke-linecap:square;stroke-linejoin:miter;stroke-miterlimit:4;stroke-dasharray:none;stroke-dashoffset:0;stroke-opacity:1;-inkscape-stroke:none;stop-color:#000000;stop-opacity:1"
           d="m 120.49894,375.65464 c -2.27126,1.3272 -19.27368,-2.68176 -22.652543,-5.66311 l -6.886715,-1.66196 -6.020356,-5.7497 c 0,0 -1.769731,-3.53948 0.589911,-1.65176 2.359639,1.88773 3.417046,2.23953 3.417046,2.23953 0,0 -4.401388,-3.1722 -3.378877,-4.03742 1.022509,-0.86518 2.203488,0.65741 3.61927,2.19116 0.337425,0.36554 2.949551,1.88771 2.949551,1.88771 -1.81176,-2.05535 -4.213299,-3.16328 -3.946786,-3.99565 0.594094,-1.85547 1.560218,-0.33571 2.938408,0.89502 1.209399,1.08001 2.781328,1.77467 4.083816,1.98039 l 6.016885,-0.27742 c 0,0 1.7304,2.20234 2.20233,2.281 0.47193,0.0786 8.25219,-1.85284 11.33648,-1.27527 1.71661,0.32146 4.81471,1.90355 4.81471,1.90355 5.804,2.01549 6.43719,5.56308 0.91687,10.93393 z"
           id="path93"
           sodipodi:nodetypes="ccccscsscssccsscc"
           inkscape:label="forearm" /></g><g
         id="g106"
         inkscape:label="dwarf_payment_bicep"
         style="display:inline"><path
           style="font-variation-settings:normal;display:inline;opacity:1;vector-effect:none;fill:#2b1100;fill-opacity:1;stroke:none;stroke-width:1.6;stroke-linecap:square;stroke-linejoin:miter;stroke-miterlimit:4;stroke-dasharray:none;stroke-dashoffset:0;stroke-opacity:1;-inkscape-stroke:none;stop-color:#000000;stop-opacity:1"
           d="m 134.9714,345.76588 c 0,0 5.97775,0.31462 5.97775,5.03391 0,4.71927 -4.45864,13.27124 -4.45864,13.27124 0,0 -12.73188,9.67882 -15.99157,11.58361 -7.57226,-2.47261 -6.30863,-6.37035 -0.91687,-10.93393 0,0 1.95287,-9.81044 3.44731,-11.6195 1.49444,-1.80906 11.94202,-7.33533 11.94202,-7.33533 z"
           id="path105"
           sodipodi:nodetypes="cscccsc"
           inkscape:label="bicep" /></g></g></g><g
     id="g115"
     inkscape:label="store_overlay"
     transform="translate(0,26.458334)"><rect
       style="display:inline;opacity:1;fill:#f9f9f9;fill-opacity:0.806653;stroke:#00aad4;stroke-width:0.763338;stroke-linecap:square;stroke-linejoin:miter;stroke-miterlimit:4;stroke-dasharray:none;stroke-dashoffset:0;stroke-opacity:1"
       id="rect95"
       width="256.72879"
       height="268.6843"
       x="5.6631355"
       y="5.0338979"
       inkscape:label="white box" /></g><g
     inkscape:groupmode="layer"
     id="layer2"
     inkscape:label="card_reader"
     style="display:inline"
     transform="matrix(1.1866641,0,0,1,-20.47805,5.7841934)"><path
       style="font-variation-settings:normal;opacity:1;vector-effect:none;fill:#1a1a1a;fill-opacity:1;stroke:none;stroke-width:1.6;stroke-linecap:square;stroke-linejoin:miter;stroke-miterlimit:4;stroke-dasharray:none;stroke-dashoffset:0;stroke-opacity:1;-inkscape-stroke:none"
       d="m 198.83898,52.226694 c 0,0 5.0339,1.258474 6.29237,5.033898 1.25848,3.775425 3.14619,49.709748 1.88771,58.519068 -1.25847,8.80932 -5.03389,140.31991 -5.03389,140.31991 l -3.14619,16.9894 -7.55085,6.92163 z"
       id="path66" /><path
       style="font-variation-settings:normal;opacity:1;vector-effect:none;fill:#1a1a1a;fill-opacity:1;stroke:none;stroke-width:1.6;stroke-linecap:square;stroke-linejoin:miter;stroke-miterlimit:4;stroke-dasharray:none;stroke-dashoffset:0;stroke-opacity:1;-inkscape-stroke:none"
       d="M 66.699153,30.832626 67.957625,0.62923729 c 0,0 43.417375,-5.03389829 59.777545,-5.03389829 C 144.09534,-4.404661 190.6589,0 190.6589,0 L 195.06356,88.093218 189.40042,271.20127 69.845337,269.94278 61.665254,45.934323 Z"
       id="path65" /><path
       style="font-variation-settings:normal;opacity:1;vector-effect:none;fill:#b3b3b3;fill-opacity:1;stroke:none;stroke-width:1.6;stroke-linecap:square;stroke-linejoin:miter;stroke-miterlimit:4;stroke-dasharray:none;stroke-dashoffset:0;stroke-opacity:1;-inkscape-stroke:none"
       d="m 66.699153,288.8199 c 0,0 35.866527,9.43856 62.923727,9.43856 27.0572,0 63.55297,-8.18007 63.55297,-8.18007 l 6.92161,-246.661017 c 0,0 -0.62924,-11.326273 -1.88772,-13.213985 -1.25847,-1.887709 -6.29237,-2.516946 -6.29237,-2.516946 0,0 -0.62924,128.364408 -0.62924,135.286018 0,6.92161 -4.40466,91.86864 -4.40466,91.86864 0,0 -40.90042,5.66313 -57.88983,5.66313 -16.9894,0 -56.002116,-4.40466 -56.002116,-4.40466 L 66.069916,27.686442 61.036017,28.315679 c 0,0 -1.887712,56.631355 -1.258475,70.474574 0.629237,13.843217 6.921611,190.029647 6.921611,190.029647 z"
       id="path64" /><path
       style="font-variation-settings:normal;opacity:1;vector-effect:none;fill:#aa8800;fill-opacity:1;stroke:none;stroke-width:1.6;stroke-linecap:square;stroke-linejoin:miter;stroke-miterlimit:4;stroke-dasharray:none;stroke-dashoffset:0;stroke-opacity:1;-inkscape-stroke:none"
       d="m 118.35349,264.40438 c 0,0 20.80085,0.11123 24.24912,0.11123 3.44827,0 3.89321,2.66963 3.89321,2.66963 0,0 0.11123,5.89542 0.11123,8.6763 0,2.78085 -2.66962,2.44716 -2.66962,2.44716 0,0 -22.2469,0.11123 -25.139,0.11123 -2.89209,0 -3.00333,-2.89211 -3.00333,-2.89211 0,0 -0.11123,-6.4516 -0.11123,-8.89876 0,-2.44715 2.66962,-2.22468 2.66962,-2.22468 z"
       id="path67" /><path
       style="font-variation-settings:normal;opacity:1;vector-effect:none;fill:#55d400;fill-opacity:1;stroke:#4d4d4d;stroke-width:1.6;stroke-linecap:square;stroke-linejoin:miter;stroke-miterlimit:4;stroke-dasharray:none;stroke-dashoffset:0;stroke-opacity:1;-inkscape-stroke:none"
       d="m 154.72717,275.75028 c 0,0 0,-8.34258 0,-10.01109 0,-1.66852 2.33593,-2.11346 2.33593,-2.11346 0,0 17.35258,-1.66851 21.24578,-1.89098 3.89321,-0.22247 4.33815,2.44716 4.33815,2.44716 0,0 0,5.22803 0,8.56506 0,3.33703 -3.44827,3.67072 -3.44827,3.67072 0,0 -18.35369,1.66852 -21.69073,1.77978 -3.33703,0.11123 -2.78086,-2.44719 -2.78086,-2.44719 z"
       id="path68" /><path
       style="font-variation-settings:normal;opacity:1;vector-effect:none;fill:#c83737;fill-opacity:1;stroke:#666666;stroke-width:1.6;stroke-linecap:square;stroke-linejoin:miter;stroke-miterlimit:4;stroke-dasharray:none;stroke-dashoffset:0;stroke-opacity:1;-inkscape-stroke:none"
       d="m 80.200065,274.08177 c 0,0 -0.333703,-7.7864 -0.333703,-9.89986 0,-2.11346 2.335924,-2.22469 2.335924,-2.22469 0,0 18.353694,1.33481 21.579494,1.66851 3.2258,0.33371 2.89209,2.33592 2.89209,2.33592 0,0 0.11124,7.23024 0.11124,9.78863 0,2.55842 -2.78086,2.11347 -2.78086,2.11347 0,0 -18.576164,-1.22357 -21.357027,-1.33483 -2.780861,-0.11123 -2.447158,-2.44715 -2.447158,-2.44715 z"
       id="path69" /><path
       style="font-variation-settings:normal;opacity:1;vector-effect:none;fill:url(#linearGradient71);fill-opacity:1;stroke:none;stroke-width:1.6;stroke-linecap:square;stroke-linejoin:miter;stroke-miterlimit:4;stroke-dasharray:none;stroke-dashoffset:0;stroke-opacity:1;-inkscape-stroke:none"
       d="M 71.733049,41.529661 H 187.51271 l -3.14619,-30.20339 c 0,0 -37.11302,-5.2562894 -56.2562,-5.2563671 -18.25284,-7.4e-5 -54.044621,4.7416391 -54.044621,4.7416391 z"
       id="path70"
       sodipodi:nodetypes="cccscc" /><rect
       style="font-variation-settings:normal;opacity:1;vector-effect:none;fill:#97a597;fill-opacity:1;stroke:#666666;stroke-width:1.59351;stroke-linecap:square;stroke-linejoin:miter;stroke-miterlimit:4;stroke-dasharray:none;stroke-dashoffset:0;stroke-opacity:1;-inkscape-stroke:none"
       id="rect71"
       width="109.0098"
       height="161.06754"
       x="75.555222"
       y="57.131454" /><path
       style="font-variation-settings:normal;display:inline;opacity:1;fill:url(#linearGradient73);stroke:#666666;stroke-width:0.7;stroke-linecap:square;stroke-linejoin:miter;stroke-miterlimit:4;stroke-dasharray:none;stroke-dashoffset:0;stroke-opacity:1;stop-color:#000000;stop-opacity:1"
       d="m 79.421423,233.14749 c 32.702937,-1.33482 51.390337,-0.88988 51.390337,-0.88988 0,0 49.16564,-0.22247 52.05774,0 2.89209,0.22247 2.89209,4.89432 2.89209,6.67407 0,1.77975 -0.44493,5.11678 -0.6674,5.33925 -0.22247,0.22247 -29.36591,5.56173 -53.8375,5.33926 -24.47158,-0.22247 -48.053295,-3.33703 -52.057734,-3.33703 -4.004442,0 -3.012795,-6.44725 -2.892097,-10.45605 0.09215,-3.06058 3.114564,-2.66962 3.114564,-2.66962 z"
       id="path71"
       sodipodi:nodetypes="ccssssssc" /><path
       style="font-variation-settings:normal;display:inline;opacity:1;fill:#999999;fill-opacity:1;stroke:#666666;stroke-width:0.7;stroke-linecap:square;stroke-linejoin:miter;stroke-miterlimit:4;stroke-dasharray:none;stroke-dashoffset:0;stroke-opacity:1"
       d="m 118.46473,248.44063 0.11123,-17.0729 2.66963,-2.89209 19.0211,0.11123 3.2258,2.11346 0.11123,17.68468 -2.78086,3.72635 h -19.3548 z"
       id="path73"
       sodipodi:nodetypes="ccccccccc" /><rect
       style="font-variation-settings:normal;opacity:1;fill:#1a1a1a;fill-opacity:1;stroke:none;stroke-width:0.7;stroke-linecap:square;stroke-linejoin:miter;stroke-miterlimit:4;stroke-dasharray:none;stroke-dashoffset:0;stroke-opacity:1"
       id="rect74"
       width="15.517211"
       height="11.512769"
       x="123.47029"
       y="234.64914" /><path
       style="font-variation-settings:normal;opacity:1;fill:#999999;fill-opacity:1;stroke:none;stroke-width:0.7;stroke-linecap:square;stroke-linejoin:miter;stroke-miterlimit:4;stroke-dasharray:none;stroke-dashoffset:0;stroke-opacity:1"
       d="m 144.8273,236.48452 v 7.78641 l 6.00666,-4.00444 z"
       id="path74" /><path
       style="font-variation-settings:normal;opacity:1;fill:#999999;fill-opacity:1;stroke:none;stroke-width:0.7;stroke-linecap:square;stroke-linejoin:miter;stroke-miterlimit:4;stroke-dasharray:none;stroke-dashoffset:0;stroke-opacity:1"
       d="m 117.39287,236.70144 v 7.78641 l -6.00666,-4.00444 z"
       id="path75" /><path
       style="font-variation-settings:normal;opacity:1;fill:#999999;fill-opacity:1;stroke:#808080;stroke-width:0.7;stroke-linecap:square;stroke-linejoin:miter;stroke-miterlimit:4;stroke-dasharray:none;stroke-dashoffset:0;stroke-opacity:1"
       d="m 102.0151,240.76191 h 5.11255"
       id="path76" /><path
       style="font-variation-settings:normal;opacity:1;fill:#999999;fill-opacity:1;stroke:#808080;stroke-width:0.7;stroke-linecap:square;stroke-linejoin:miter;stroke-miterlimit:4;stroke-dasharray:none;stroke-dashoffset:0;stroke-opacity:1"
       d="m 94.778866,240.60461 -4.955244,-0.0787"
       id="path77" /><path
       style="font-variation-settings:normal;opacity:1;fill:#999999;fill-opacity:1;stroke:#808080;stroke-width:0.7;stroke-linecap:square;stroke-linejoin:miter;stroke-miterlimit:4;stroke-dasharray:none;stroke-dashoffset:0;stroke-opacity:1"
       d="m 154.87103,240.36864 h 4.87658"
       id="path78" /><path
       style="font-variation-settings:normal;opacity:1;fill:#999999;fill-opacity:1;stroke:#808080;stroke-width:0.7;stroke-linecap:square;stroke-linejoin:miter;stroke-miterlimit:4;stroke-dasharray:none;stroke-dashoffset:0;stroke-opacity:1"
       d="m 167.14115,239.73941 4.71928,0.1573"
       id="path79" /><path
       style="font-variation-settings:normal;opacity:1;fill:#999999;fill-opacity:1;stroke:#808080;stroke-width:0.7;stroke-linecap:square;stroke-linejoin:miter;stroke-miterlimit:4;stroke-dasharray:none;stroke-dashoffset:0;stroke-opacity:1"
       d="m 165.56806,232.58183 v 14.00053"
       id="path80" /><path
       style="font-variation-settings:normal;opacity:1;fill:#999999;fill-opacity:1;stroke:#808080;stroke-width:0.7;stroke-linecap:square;stroke-linejoin:miter;stroke-miterlimit:4;stroke-dasharray:none;stroke-dashoffset:0;stroke-opacity:1"
       d="m 100.83527,233.21107 0.15731,14.55111"
       id="path81" /><g
       id="g105"
       inkscape:label="confirm_led"><ellipse
         style="display:inline;fill:url(#radialGradient105);stroke:none;stroke-width:2.30603;stroke-linecap:square;stroke-dasharray:none;stroke-opacity:0.424116"
         id="path104"
         cx="168.92349"
         cy="269.63235"
         rx="13.310672"
         ry="13.793077"
         inkscape:label="led" /></g></g></svg>
