<?xml version="1.0" encoding="UTF-8" standalone="no"?>
<!-- Created with Inkscape (http://www.inkscape.org/) -->

<svg
   width="180mm"
   height="120mm"
   viewBox="0 0 180 120"
   version="1.1"
   id="svg1"
   inkscape:version="1.3.2 (091e20e, 2023-11-25)"
   sodipodi:docname="sign_skull.svg"
   xml:space="preserve"
   xmlns:inkscape="http://www.inkscape.org/namespaces/inkscape"
   xmlns:sodipodi="http://sodipodi.sourceforge.net/DTD/sodipodi-0.dtd"
   xmlns:xlink="http://www.w3.org/1999/xlink"
   xmlns="http://www.w3.org/2000/svg"
   xmlns:svg="http://www.w3.org/2000/svg"><sodipodi:namedview
     id="namedview1"
     pagecolor="#ffffff"
     bordercolor="#000000"
     borderopacity="0.25"
     inkscape:showpageshadow="2"
     inkscape:pageopacity="0.0"
     inkscape:pagecheckerboard="true"
     inkscape:deskcolor="#d1d1d1"
     inkscape:document-units="mm"
     inkscape:zoom="4.7572176"
     inkscape:cx="94.277798"
     inkscape:cy="60.539589"
     inkscape:window-width="1728"
     inkscape:window-height="997"
     inkscape:window-x="0"
     inkscape:window-y="38"
     inkscape:window-maximized="0"
     inkscape:current-layer="layer1"
     showguides="true" /><defs
     id="defs1"><linearGradient
       id="swatch6"
       inkscape:swatch="solid"
       inkscape:label="Easy"><stop
         style="stop-color:#008c55;stop-opacity:1;"
         offset="0"
         id="stop6" /></linearGradient><linearGradient
       id="swatch5"
       inkscape:swatch="solid"
       inkscape:label="Medium"><stop
         style="stop-color:#0069ac;stop-opacity:1;"
         offset="0"
         id="stop5" /></linearGradient><linearGradient
       inkscape:collect="always"
       xlink:href="#swatch5"
       id="linearGradient5"
       x1="1.3959733"
       y1="16.143624"
       x2="177.54847"
       y2="16.143624"
       gradientUnits="userSpaceOnUse" /><linearGradient
       inkscape:collect="always"
       xlink:href="#swatch6"
       id="linearGradient6"
       x1="1.3959733"
       y1="16.143624"
       x2="177.54847"
       y2="16.143624"
       gradientUnits="userSpaceOnUse" /></defs><g
     inkscape:label="Layer 1"
     inkscape:groupmode="layer"
     id="layer1"><path
       id="rect2"
       style="fill:#808080;stroke:#808080;stroke-width:2.98066;stroke-linecap:square"
       d="m 2.8863061,32.381603 h 6.366586 v 72.162107 c -1.5587323,1.10971 -3.1324833,2.18987 -6.366586,0 z"
       sodipodi:nodetypes="ccccc" /><path
       id="rect2-9"
       style="fill:#808080;stroke:#808080;stroke-width:2.98066;stroke-linecap:square"
       d="m 169.69157,32.381603 h 6.36659 v 72.162107 c -1.55873,1.10971 -3.13248,2.18987 -6.36659,0 z"
       sodipodi:nodetypes="ccccc" /><path
       id="path1"
       style="display:none;fill:#ff0000;stroke:none;stroke-width:0.960681;stroke-linecap:square"
       d="m 95.596765,10.315686 c -3.28237,2.4e-5 -5.94324,2.571391 -5.94327,5.74334 0.0153,4.449144 11.129025,14.868768 11.129025,14.868768 0,0 11.73326,-9.7781 11.76025,-14.868768 -3e-5,-3.172019 -2.66101,-5.743415 -5.94345,-5.74334 -2.41593,0.0055 -4.53213,1.315578 -5.43894,3.479551 -0.90857,-2.168163 -3.142995,-3.47913 -5.563615,-3.479551 z"
       sodipodi:nodetypes="ccccccc" /><rect
       style="display:none;fill:url(#linearGradient5);stroke:none;stroke-width:2.44527;stroke-linecap:square"
       id="rect5"
       width="176.1525"
       height="29.495302"
       x="1.3959733"
       y="1.3959733"
       inkscape:label="blue signback" /><rect
       style="display:inline;fill:url(#linearGradient6);fill-opacity:1;stroke:none;stroke-width:2.44527;stroke-linecap:square"
       id="rect1"
       width="176.1525"
       height="29.495302"
       x="1.3959733"
       y="1.3959733"
       inkscape:label="green signback" /><rect
       style="display:inline;fill:#1a1a1a;fill-opacity:1;stroke:none;stroke-width:2.44527;stroke-linecap:square"
       id="rect6"
       width="176.1525"
       height="29.495302"
       x="1.3959733"
       y="1.3959733"
       inkscape:label="black signback" /><rect
       style="display:inline;fill:#ffffff;fill-opacity:1;stroke:none;stroke-width:2.39428;stroke-linecap:square"
       id="rect3"
       width="25"
       height="25"
       x="10.036487"
       y="3" /><rect
       style="display:inline;fill:#ffffff;fill-opacity:1;stroke:none;stroke-width:2.39428;stroke-linecap:square"
       id="rect3-1"
       width="25"
       height="25"
       x="36.777073"
       y="3" /><rect
       style="font-variation-settings:normal;display:none;opacity:1;vector-effect:none;fill:#0069ac;fill-opacity:1;stroke:none;stroke-width:2.44527;stroke-linecap:square;stroke-linejoin:miter;stroke-miterlimit:4;stroke-dasharray:none;stroke-dashoffset:0;stroke-opacity:1;-inkscape-stroke:none;stop-color:#000000;stop-opacity:1"
       id="rect4"
       width="17.382679"
       height="17.225372"
       x="13.84322"
       y="6.7787075"
       inkscape:label="blue square" /><path
       style="font-variation-settings:normal;display:none;opacity:1;vector-effect:none;fill:#000000;fill-opacity:1;stroke:none;stroke-width:2.44527;stroke-linecap:square;stroke-linejoin:miter;stroke-miterlimit:4;stroke-dasharray:none;stroke-dashoffset:0;stroke-opacity:1;-inkscape-stroke:none"
       d="m 44.911811,9.517214 -2.556276,2.51695 8.298066,8.494702 -10.89367,0.196638 3.854078,3.97206 13.567929,0.196635 L 57.024629,11.05098 53.367187,7.314884 53.209878,18.090571 Z"
       id="path4"
       inkscape:label="downleft" /><path
       style="font-variation-settings:normal;display:none;opacity:1;vector-effect:none;fill:#000000;fill-opacity:1;stroke:none;stroke-width:2.44527;stroke-linecap:square;stroke-linejoin:miter;stroke-miterlimit:4;stroke-dasharray:none;stroke-dashoffset:0;stroke-opacity:1;-inkscape-stroke:none"
       d="m 52.030058,9.517214 2.556276,2.51695 -8.298066,8.494702 10.89367,0.196638 -3.854078,3.97206 -13.567929,0.196635 0.157309,-13.843219 3.657442,-3.736096 0.157309,10.775687 z"
       id="path7"
       inkscape:label="downright" /><circle
       style="font-variation-settings:normal;display:none;opacity:1;vector-effect:none;fill:#008c55;fill-opacity:1;stroke:none;stroke-width:1.98067;stroke-linecap:square;stroke-linejoin:miter;stroke-miterlimit:4;stroke-dasharray:none;stroke-dashoffset:0;stroke-opacity:1;-inkscape-stroke:none"
       id="path6"
       cx="22.536488"
       cy="15.499999"
       r="10.125"
       inkscape:label="green circle" /><path
       id="rect8"
       style="font-variation-settings:normal;display:none;opacity:1;vector-effect:none;fill:#000000;fill-opacity:1;stroke:none;stroke-width:1.73297;stroke-linecap:square;stroke-linejoin:miter;stroke-miterlimit:4;stroke-dasharray:none;stroke-dashoffset:0;stroke-opacity:1;-inkscape-stroke:none;stop-color:#000000;stop-opacity:1"
       inkscape:label="double diamond"
       d="m 23.548594,-18.671985 -3.34e-4,12.2079692 12.319572,-2.933e-4 1.01e-4,-9.6399499 9.760265,4.34e-4 3.34e-4,-12.20797 -12.319571,2.94e-4 -1.01e-4,9.639949 z"
       transform="matrix(0.44005146,0.89797256,-0.44005146,0.89797256,0,0)" /><path
       id="rect10"
       style="font-variation-settings:normal;display:none;opacity:1;vector-effect:none;fill:#000000;fill-opacity:1;stroke:none;stroke-width:1.67427;stroke-linecap:square;stroke-linejoin:miter;stroke-miterlimit:4;stroke-dasharray:none;stroke-dashoffset:0;stroke-opacity:1;-inkscape-stroke:none;stop-color:#000000;stop-opacity:1"
       inkscape:label="triple black diamond"
       d="m 23.993435,-19.282001 -4.91e-4,11.7946424 11.901799,2.138e-4 5.95e-4,-9.3139322 9.429739,3.55e-4 5.2e-4,-9.294398 9.293698,1.8e-4 4.91e-4,-11.794642 -11.9025,4.86e-4 1.81e-4,9.293698 -9.294398,5.2e-4 1.05e-4,9.313233 z"
       transform="matrix(0.36893795,0.92945403,-0.36893795,0.92945403,0,0)" /><path
       style="display:inline;fill:#000000;stroke-width:2.89295;stroke-linecap:square"
       d="m 18.298073,24.026649 v -1.724134 l -0.611789,-1.390431 c 0,0 -3.281418,0.723024 -3.781973,-0.222469 -0.500555,-0.945494 0.389321,-2.725245 0.278086,-3.44827 -0.111234,-0.723024 -0.945493,-2.892096 -0.945493,-4.171293 0,-1.279196 1.779752,-5.8398103 3.058948,-6.7853034 1.279197,-0.9454932 4.004442,-1.7797517 5.951045,-1.835369 1.946604,-0.055617 5.67296,0.7230239 6.562836,1.890986 0.889875,1.1679624 3.170182,5.0611694 3.00333,6.8965384 -0.166852,1.835369 -0.889876,3.058948 -0.889876,4.004441 0,0.945494 0.898741,2.457707 0.611791,2.83648 -1.390431,1.835369 -3.670739,0.111235 -4.393763,1.390431 -0.723024,1.279197 -0.278085,2.391541 -0.278085,2.391541 l -1.334815,0.61179 -0.111235,-1.557283 h -0.723024 v 1.501666 l -1.779752,0.222469 0.111235,-1.724135 -0.889876,0.166852 0.111234,1.557283 -1.779751,-0.166852 v -1.557283 h -0.723025 l -0.05562,1.446049 z"
       id="path2"
       sodipodi:nodetypes="cccsssssssssscccccccccccccc" /><ellipse
       style="fill:#f9f9f9;stroke-width:2.53874;stroke-linecap:square"
       id="path3"
       cx="18.99329"
       cy="13.70965"
       rx="2.4193499"
       ry="1.8631774" /><ellipse
       style="fill:#f9f9f9;stroke-width:2.64998;stroke-linecap:square"
       id="path3-6"
       cx="25.883038"
       cy="13.769426"
       rx="2.4193499"
       ry="2.0300293" /><path
       style="fill:#f9f9f9;stroke-width:2.89295;stroke-linecap:square"
       d="m 22.469366,16.295852 c -0.834259,0 -1.890986,1.779752 -1.946603,2.502776 -0.05562,0.723024 1.446048,-0.166852 1.779751,-0.166852 0.333704,0 1.390432,0.389321 1.890987,0.333704 0.500555,-0.05562 -0.778642,-2.669628 -1.724135,-2.669628 z"
       id="path5"
       sodipodi:nodetypes="sssss" /></g></svg>
