<?xml version="1.0" encoding="UTF-8" standalone="no"?>
<!-- Created with Inkscape (http://www.inkscape.org/) -->

<svg
   width="550"
   height="550"
   viewBox="0 0 145.52083 145.52084"
   version="1.1"
   id="svg1"
   xml:space="preserve"
   inkscape:version="1.3.2 (091e20e, 2023-11-25)"
   sodipodi:docname="ski.svg"
   xmlns:inkscape="http://www.inkscape.org/namespaces/inkscape"
   xmlns:sodipodi="http://sodipodi.sourceforge.net/DTD/sodipodi-0.dtd"
   xmlns:xlink="http://www.w3.org/1999/xlink"
   xmlns="http://www.w3.org/2000/svg"
   xmlns:svg="http://www.w3.org/2000/svg"><sodipodi:namedview
     id="namedview1"
     pagecolor="#ffffff"
     bordercolor="#000000"
     borderopacity="0.25"
     inkscape:showpageshadow="2"
     inkscape:pageopacity="0.0"
     inkscape:pagecheckerboard="0"
     inkscape:deskcolor="#d1d1d1"
     inkscape:document-units="mm"
     inkscape:zoom="0.4204826"
     inkscape:cx="265.17149"
     inkscape:cy="208.09422"
     inkscape:window-width="1520"
     inkscape:window-height="810"
     inkscape:window-x="0"
     inkscape:window-y="38"
     inkscape:window-maximized="0"
     inkscape:current-layer="layer1" /><defs
     id="defs1" /><g
     inkscape:label="skis"
     inkscape:groupmode="layer"
     id="layer1"
     transform="translate(-33.046466,-38.755124)"><g
       id="g8"
       inkscape:label="left"><path
         style="display:inline;fill:#333333;fill-opacity:1;stroke-width:2.89295;stroke-linecap:square"
         d="m 38.709602,74.304638 6.896537,-4.004442 c 0,0 4.671848,2.447157 5.784193,3.337036 1.112346,0.889875 96.996478,67.408098 96.996478,67.408098 0,0 11.34591,6.22913 12.45826,6.89654 1.11234,0.66741 3.33703,3.78197 0.22247,6.4516 -3.11457,2.66963 -7.78642,4.44938 -13.34814,1.11234 -5.56172,-3.33703 -45.1612,-35.8175 -56.50712,-44.04885 C 79.866362,103.2256 40.266884,77.864141 40.266884,77.864141 Z"
         id="path1" /><path
         style="display:inline;fill:#000000;fill-opacity:1;stroke-width:2.89295;stroke-linecap:square"
         d="m 92.547093,109.56597 3.893206,-4.00444 -18.909861,-13.236905 -4.560615,3.893206 z"
         id="path2" /><path
         style="display:inline;fill:#666666;fill-opacity:1;stroke-width:2.89295;stroke-linecap:square"
         d="m 64.293535,89.766231 4.449379,3.893207 3.448269,2.113454 4.00444,2.558394 0.889876,-0.556173 -0.444937,-1.223579 2.447158,0.556173 3.781972,-2.892097 -0.667406,-1.001109 -1.890987,-0.667409 -0.77864,0.444939 -2.892097,-1.779751 1.557282,-1.112345 -2.502776,-2.113456 -1.056727,-1.334814 -2.669627,-3.00333 0.333703,0.889875 -1.446049,0.889876 -2.113454,-1.112345 0.889875,4.226912 -1.112345,1.334812 -3.448269,-0.556173 z"
         id="path3"
         sodipodi:nodetypes="ccccccccccccccccccccccc" /><path
         style="display:inline;fill:#666666;fill-opacity:1;stroke-width:2.89295;stroke-linecap:square"
         d="m 91.43475,107.34128 1.446048,3.11457 10.344802,8.00888 3.11457,1.11234 2.78086,-0.6674 0.3337,-1.77975 0.44494,-0.11124 -0.55617,-1.77975 -3.00333,-2.66963 -0.66741,-2.33592 -2.66963,-3.33704 -1.66851,-1.00111 -2.335925,-1.77975 -0.778642,1.66852 -3.114567,-1.33482 -2.558394,1.33482 z"
         id="path4" /><path
         style="display:inline;fill:#cccccc;fill-opacity:1;stroke-width:3.12474;stroke-linecap:square"
         d="m 68.250303,84.228688 2.680221,1.421868 1.705597,-0.829424 -0.365486,-2.488266 -0.974627,-1.18489 -1.21828,-0.947911 -2.192909,1.421868 -0.365484,0.592445 z"
         id="path5" /><path
         style="display:inline;fill:#b3b3b3;fill-opacity:1;stroke-width:2.89295;stroke-linecap:square"
         d="m 68.744173,90.138241 2.359639,3.303495 1.415785,0.471929 1.730402,-0.786548 -0.629238,-2.516949 -1.730401,-1.415783 -2.359642,-0.943856 z"
         id="path6" /><path
         style="display:inline;fill:#cccccc;fill-opacity:1;stroke-width:2.89295;stroke-linecap:square"
         d="m 74.286531,93.192278 0.592705,-2.110181 2.359642,-0.471929 h 0.786545 v -0.943856 l -3.146187,-2.988877 -1.887712,0.47193 -1.415783,1.415783 v 0.471926 l 1.887712,1.415786 z"
         id="path7"
         sodipodi:nodetypes="ccccccccccc" /><path
         style="fill:#b3b3b3;fill-opacity:1;stroke-width:2.89295;stroke-linecap:square"
         d="m 97.218941,108.67609 0.83426,1.22358 1.112345,2.8921 3.781974,1.9466 1.11234,-0.0556 -0.38932,-1.16797 h -0.3337 l 0.3337,-1.9466 0.44494,-0.44494 1.22358,0.16685 0.72302,0.50056 -0.22246,-1.00111 -2.33593,-3.78197 -2.83648,-1.22358 -0.667406,0.50055 -0.389321,1.05673 -0.500555,0.22247 -1.056727,0.3337 z"
         id="path8" /></g><use
       x="0"
       y="0"
       xlink:href="#g8"
       id="use8"
       inkscape:label="right"
       transform="matrix(0.96254904,-0.02919511,0.02888159,0.97299785,12.384638,-3.7750855)" /></g></svg>
