<?xml version="1.0" encoding="UTF-8" standalone="no"?>
<!-- Created with Inkscape (http://www.inkscape.org/) -->

<svg
   width="600"
   height="600"
   viewBox="0 0 158.75 158.75"
   version="1.1"
   id="svg1"
   xml:space="preserve"
   inkscape:version="1.3.2 (091e20e, 2023-11-25)"
   sodipodi:docname="yetiburger.svg"
   xmlns:inkscape="http://www.inkscape.org/namespaces/inkscape"
   xmlns:sodipodi="http://sodipodi.sourceforge.net/DTD/sodipodi-0.dtd"
   xmlns:xlink="http://www.w3.org/1999/xlink"
   xmlns="http://www.w3.org/2000/svg"
   xmlns:svg="http://www.w3.org/2000/svg"><sodipodi:namedview
     id="namedview1"
     pagecolor="#ffffff"
     bordercolor="#000000"
     borderopacity="0.25"
     inkscape:showpageshadow="2"
     inkscape:pageopacity="0.0"
     inkscape:pagecheckerboard="0"
     inkscape:deskcolor="#d1d1d1"
     inkscape:document-units="mm"
     inkscape:zoom="0.55625735"
     inkscape:cx="299.32189"
     inkscape:cy="300.22075"
     inkscape:window-width="1512"
     inkscape:window-height="819"
     inkscape:window-x="114"
     inkscape:window-y="38"
     inkscape:window-maximized="0"
     inkscape:current-layer="layer1" /><defs
     id="defs1"><linearGradient
       id="linearGradient12"
       inkscape:collect="always"><stop
         style="stop-color:#000000;stop-opacity:0.98544699;"
         offset="0"
         id="stop12" /><stop
         style="stop-color:#000000;stop-opacity:0;"
         offset="1"
         id="stop13" /></linearGradient><linearGradient
       id="linearGradient5"
       inkscape:collect="always"><stop
         style="stop-color:#7b53e4;stop-opacity:1;"
         offset="0"
         id="stop5" /><stop
         style="stop-color:#ff4cff;stop-opacity:1;"
         offset="1"
         id="stop6" /></linearGradient><linearGradient
       id="linearGradient1"
       inkscape:collect="always"><stop
         style="stop-color:#ba4a03;stop-opacity:1;"
         offset="0.39676839"
         id="stop1" /><stop
         style="stop-color:#e0c286;stop-opacity:1;"
         offset="1"
         id="stop2" /></linearGradient><radialGradient
       inkscape:collect="always"
       xlink:href="#linearGradient1"
       id="radialGradient2"
       cx="72.698692"
       cy="43.897255"
       fx="72.698692"
       fy="43.897255"
       r="55.650951"
       gradientTransform="matrix(1.5282245,-0.19123905,0.10204463,0.81545634,-47.085924,25.190031)"
       gradientUnits="userSpaceOnUse" /><linearGradient
       inkscape:collect="always"
       xlink:href="#linearGradient5"
       id="linearGradient6"
       x1="66.987022"
       y1="101.55813"
       x2="79.433411"
       y2="73.970474"
       gradientUnits="userSpaceOnUse" /><radialGradient
       inkscape:collect="always"
       xlink:href="#linearGradient12"
       id="radialGradient13"
       cx="78.719933"
       cy="63.963833"
       fx="78.719933"
       fy="63.963833"
       r="54.461826"
       gradientTransform="matrix(0.9987829,-0.04932261,0.0349345,0.70742359,-2.1387343,23.321431)"
       gradientUnits="userSpaceOnUse" /></defs><g
     inkscape:label="food"
     inkscape:groupmode="layer"
     id="layer1"><path
       style="display:inline;fill:#c66f2b;fill-opacity:1;stroke:none;stroke-width:2.89295;stroke-linecap:square"
       d="m 21.404211,88.94639 c 0,0 0,40.43018 35.198037,44.23537 35.198037,3.80519 63.261332,4.28084 72.774322,-20.92856 9.51298,-25.209407 2.85389,-19.501617 2.85389,-19.501617 z"
       id="path2"
       sodipodi:insensitive="true"
       sodipodi:nodetypes="csscc" /><path
       style="display:inline;fill:#c23e0b;fill-opacity:1;stroke:none;stroke-width:2.89295;stroke-linecap:square"
       d="m 36.624984,103.69151 22.355509,12.84253 34.722387,-0.9513 24.73375,-6.65909 -14.26947,-9.51298 -62.310035,-2.378245 z"
       id="path4" /><path
       style="fill:url(#linearGradient6);fill-opacity:1;stroke:none;stroke-width:2.89295;stroke-linecap:square"
       d="m 23.306808,61.834389 c 0,0 -5.232141,21.404209 3.805194,27.111999 9.037333,5.70779 26.63635,16.647722 32.819789,16.647722 6.18344,0 55.650949,3.80519 58.504839,-0.9513 2.8539,-4.756491 18.07467,-17.123367 18.07467,-19.501614 0,-2.378245 -8.08603,-15.220773 -8.08603,-15.220773 L 47.564915,55.1753 Z"
       id="path5" /><path
       style="fill:#99af14;fill-opacity:1;stroke:none;stroke-width:2.89295;stroke-linecap:square"
       d="m 17.599018,73.725616 -7.134737,-0.47565 7.610386,12.842529 -5.707789,4.756491 13.318176,9.037333 v 12.842531 l 9.037333,-6.65909 8.086034,15.22077 3.805195,-6.65909 19.501615,10.46428 5.23214,-8.56168 14.745124,8.56168 3.329543,-7.13473 17.599022,-0.9513 v 8.08603 h 8.08603 l 3.32954,-10.46428 14.26948,0.47565 5.70779,-1.42695 2.37825,-6.65908 -5.70779,-10.464284 6.18343,3.329543 0.47565,-5.70779 3.8052,-5.232141 -8.08604,-4.756491 -7.13474,6.659089 -11.89123,11.891234 -8.08603,-1.42695 4.75649,8.08603 -11.89123,3.80519 -14.745121,1.9026 3.805195,-8.56168 -9.512983,1.42695 -0.951298,-5.70779 -5.70779,6.18343 2.853893,5.70779 -10.93993,-3.32954 -1.902595,-4.75649 -3.329543,3.32954 v 4.75649 l -18.074669,-6.18343 1.426948,-4.7565 -5.70779,-3.329541 V 96.081126 L 29.014597,93.22723 v -6.659086 h -3.329543 l -4.280843,-8.086037 z"
       id="path3" /><ellipse
       style="fill:url(#radialGradient13);fill-opacity:0.38461539;stroke:none;stroke-width:2.57966;stroke-linecap:square"
       id="path11"
       cx="77.768631"
       cy="65.63958"
       rx="54.461826"
       ry="30.917194" /><path
       style="display:inline;fill:url(#radialGradient2);stroke:none;stroke-width:2.89295;stroke-linecap:square"
       d="m 22.831159,53.272703 c 1.426947,-16.647719 30.917193,-29.490246 55.175299,-29.965895 24.258112,-0.475649 56.126602,13.793826 56.126602,35.673685 0,21.879861 -23.30681,28.0633 -56.126602,28.0633 -32.81979,0 -54.224001,-12.842528 -55.175299,-33.77109 z"
       id="path1" /><ellipse
       style="fill:#8be9ff;fill-opacity:1;stroke:none;stroke-width:2.89295;stroke-linecap:square"
       id="path6"
       cx="111.06408"
       cy="55.175301"
       rx="4.0430179"
       ry="2.8538947" /><ellipse
       style="fill:#8be9ff;fill-opacity:1;stroke:none;stroke-width:2.89295;stroke-linecap:square"
       id="path6-4"
       cx="53.798389"
       cy="56.498775"
       rx="4.0430179"
       ry="2.8538947" /><ellipse
       style="fill:#8be9ff;fill-opacity:1;stroke:none;stroke-width:2.89295;stroke-linecap:square"
       id="ellipse6"
       cx="63.311371"
       cy="40.326706"
       rx="4.0430179"
       ry="2.8538947" /><ellipse
       style="fill:#8be9ff;fill-opacity:1;stroke:none;stroke-width:2.89295;stroke-linecap:square"
       id="ellipse7"
       cx="79.959091"
       cy="64.584816"
       rx="4.0430179"
       ry="2.8538947" /><ellipse
       style="fill:#8be9ff;fill-opacity:1;stroke:none;stroke-width:2.89295;stroke-linecap:square"
       id="ellipse8"
       cx="93.752914"
       cy="56.97443"
       rx="4.0430179"
       ry="2.8538947" /><ellipse
       style="fill:#8be9ff;fill-opacity:1;stroke:none;stroke-width:2.89295;stroke-linecap:square"
       id="ellipse9"
       cx="112.30323"
       cy="42.704956"
       rx="4.0430179"
       ry="2.8538947" /><ellipse
       style="fill:#8be9ff;fill-opacity:1;stroke:none;stroke-width:2.89295;stroke-linecap:square"
       id="ellipse10"
       cx="75.678246"
       cy="51.26664"
       rx="4.0430179"
       ry="2.8538947" /><ellipse
       style="fill:#8be9ff;fill-opacity:1;stroke:none;stroke-width:2.89295;stroke-linecap:square"
       id="ellipse11"
       cx="43.334103"
       cy="49.839691"
       rx="4.0430179"
       ry="2.8538947" /><ellipse
       style="fill:#8be9ff;fill-opacity:1;stroke:none;stroke-width:2.89295;stroke-linecap:square"
       id="path12"
       cx="101.55109"
       cy="76.34169"
       rx="0.23782456"
       ry="7.3725615" /></g></svg>
